<?xml version="1.0" standalone="no"?>
<!DOCTYPE svg PUBLIC "-//W3C//DTD SVG 20010904//EN"
 "http://www.w3.org/TR/2001/REC-SVG-20010904/DTD/svg10.dtd">
<svg version="1.0" xmlns="http://www.w3.org/2000/svg"
 width="336.000000pt" height="121.000000pt" viewBox="0 0 336.000000 121.000000"
 preserveAspectRatio="xMidYMid meet">

<g transform="translate(0.000000,121.000000) scale(0.100000,-0.100000)"
fill="#FFFFFF" stroke="none">
<path d="M274 1196 c-38 -17 -39 -18 -74 -191 -16 -77 -54 -255 -84 -395 -102
-474 -111 -525 -98 -554 6 -15 23 -31 38 -36 37 -15 224 -12 254 3 21 11 30
10 53 -1 20 -10 45 -12 80 -8 29 4 61 6 72 4 15 -1 783 -1 1010 0 11 0 128 -2
260 -6 226 -6 621 -8 963 -4 150 1 153 2 179 28 22 22 27 24 35 11 15 -28 72
-38 209 -35 133 2 134 2 163 30 24 25 27 33 21 65 -12 64 -51 102 -114 113
l-36 5 -166 329 c-117 231 -174 333 -190 342 -35 19 -218 19 -245 -1 -19 -12
-24 -12 -40 0 -29 22 -231 21 -256 -1 -15 -14 -20 -15 -34 -3 -13 11 -71 15
-243 19 l-225 5 -14 48 c-13 46 -12 50 7 68 43 41 16 150 -42 168 -20 6 -223
8 -542 6 -280 -2 -523 -3 -540 -2 -37 2 -151 1 -185 -2 -14 -1 -61 1 -105 4
-58 4 -89 2 -111 -9z m191 -77 c22 -18 26 -28 22 -53 -3 -17 -9 -50 -12 -73
l-7 -43 -64 0 c-64 0 -65 0 -70 -30 -6 -28 -10 -30 -48 -30 l-42 0 24 125 25
125 72 0 c59 0 77 -4 100 -21z m208 10 c32 -17 37 -28 37 -87 0 -46 -3 -55
-20 -59 -24 -6 -23 -1 -5 -52 l14 -41 -43 0 c-43 0 -44 0 -55 45 -6 25 -16 45
-21 45 -6 0 -10 -20 -10 -45 l0 -45 -46 0 -46 0 5 33 c3 17 11 74 18 125 l12
92 69 0 c38 0 79 -5 91 -11z m267 -114 l0 -125 -114 0 -113 0 3 48 c2 26 6 82
10 125 l6 77 104 0 104 0 0 -125z m205 18 c4 -60 9 -116 11 -125 5 -16 -4 -18
-96 -18 l-101 0 3 47 3 47 46 -2 c26 -2 50 1 53 7 4 5 4 28 0 50 -6 39 -9 41
-40 41 -31 0 -34 3 -34 30 l0 30 74 0 74 0 7 -107z m176 80 c7 -16 15 -31 17
-35 2 -5 -20 -9 -50 -9 -51 -1 -52 -2 -15 -9 36 -7 66 -32 67 -57 0 -8 -21
-13 -57 -16 l-58 -3 63 -2 c66 -2 66 -2 76 -59 l6 -33 -99 0 -99 0 -6 98 c-4
53 -9 109 -12 125 l-6 27 80 0 c76 0 79 -1 93 -27z m209 15 c0 -7 3 -23 6 -35
6 -22 3 -23 -45 -23 -48 0 -51 -1 -47 -22 17 -84 12 -78 67 -78 51 0 52 -1 63
-52 l6 -28 -98 0 -99 0 -12 88 c-7 48 -15 104 -18 125 l-6 37 92 0 c66 0 91
-3 91 -12z m220 -14 c14 -35 14 -34 -20 -34 -35 0 -35 5 -10 -90 26 -101 26
-100 -18 -100 l-39 0 -12 58 c-28 130 -29 130 -64 134 -27 2 -33 8 -35 31 l-3
27 96 0 c93 0 96 -1 105 -26z m-1301 -286 c4 -13 14 -54 21 -91 9 -47 17 -67
26 -65 7 2 32 41 56 88 l43 85 94 3 c52 1 98 -1 103 -6 7 -7 -11 -454 -28
-679 l-6 -83 -108 0 -108 0 -12 80 c-7 44 -16 80 -20 80 -4 0 -11 -26 -15 -57
-12 -94 -18 -103 -68 -103 l-44 0 -13 63 c-24 125 -32 157 -39 157 -4 0 -13
-43 -20 -96 -7 -53 -15 -103 -18 -110 -4 -11 -30 -14 -108 -14 -57 0 -106 3
-108 8 -3 4 10 79 29 167 19 88 53 252 76 365 22 113 46 211 51 218 6 8 41 12
108 12 94 0 100 -1 108 -22z m551 -201 c3 -135 9 -217 15 -217 6 0 12 82 15
217 l5 218 119 3 c67 1 124 -2 129 -7 9 -9 66 -623 67 -719 l0 -42 -272 2
c-175 2 -273 7 -272 13 1 6 7 172 14 370 8 208 17 365 23 373 7 9 32 12 81 10
l71 -3 5 -218z m842 103 c41 -172 46 -160 -66 -160 -52 0 -98 4 -101 10 -3 5
-1 18 4 29 9 17 6 19 -35 26 -52 7 -59 3 -84 -52 l-17 -38 31 -42 c30 -40 34
-42 84 -43 48 0 66 10 42 25 -5 3 -10 13 -10 21 0 11 19 14 95 14 89 0 96 -1
105 -22 15 -33 97 -407 92 -413 -3 -3 -96 -5 -207 -5 -196 0 -202 1 -253 26
-96 48 -135 117 -151 269 -36 333 -34 372 19 422 49 46 80 52 260 50 l164 -2
28 -115z m457 19 c39 -55 71 -102 71 -105 0 -2 -58 -4 -130 -4 -80 0 -130 -4
-130 -10 0 -6 35 -10 85 -10 l84 0 81 -99 c44 -55 80 -105 80 -110 0 -7 -51
-11 -150 -11 -93 0 -150 -4 -150 -10 0 -6 60 -10 159 -10 117 0 162 -3 168
-12 4 -7 31 -75 59 -151 35 -93 48 -140 40 -143 -6 -2 -128 -3 -271 -2 l-259
3 -91 383 c-50 210 -89 384 -87 387 3 3 87 5 188 5 l182 0 71 -101z m302 35
c44 -36 83 -63 85 -61 3 2 -7 28 -20 57 -14 30 -23 57 -20 62 3 4 40 8 83 8
62 0 81 -4 93 -17 14 -16 378 -736 378 -748 0 -3 -39 -5 -88 -5 l-87 0 -105
105 c-58 58 -108 105 -112 105 -3 0 12 -42 34 -92 22 -51 42 -99 45 -106 4
-10 -23 -12 -132 -10 l-137 3 -139 374 c-76 205 -136 377 -133 382 3 5 43 9
89 9 l84 0 82 -66z m-1152 -646 c22 -24 37 -46 35 -50 -3 -5 -22 -8 -43 -8
-41 0 -51 13 -51 73 0 37 13 34 59 -15z m1815 1 c32 -25 35 -59 4 -59 -39 0
-74 50 -51 73 10 11 19 8 47 -14z"/>
<path d="M360 1040 c0 -5 9 -10 20 -10 11 0 20 5 20 10 0 6 -9 10 -20 10 -11
0 -20 -4 -20 -10z"/>
<path d="M603 1063 c9 -2 23 -2 30 0 6 3 -1 5 -18 5 -16 0 -22 -2 -12 -5z"/>
<path d="M820 1035 c0 -25 5 -45 10 -45 6 0 10 20 10 45 0 25 -4 45 -10 45 -5
0 -10 -20 -10 -45z"/>
<path d="M3261 114 c0 -11 3 -14 6 -6 3 7 2 16 -1 19 -3 4 -6 -2 -5 -13z"/>
</g>
</svg>
