<?xml version="1.0" encoding="UTF-8"?>
<!-- Generator: visioncortex VTracer 0.6.4 -->
<svg version="1.1" xmlns="http://www.w3.org/2000/svg" width="1802" height="868">
<path d="M0 0 C1.48 0.01 1.48 0.01 3 0.03 C4.13 0.03 5.25 0.04 6.42 0.04 C7.65 0.06 8.89 0.07 10.16 0.09 C12.15 0.1 14.13 0.12 16.11 0.13 C18.21 0.15 20.31 0.17 22.41 0.19 C26.51 0.23 30.61 0.26 34.71 0.28 C51.24 0.38 67.78 0.56 84.31 0.75 C92.61 0.85 100.9 0.94 109.19 1 C116.51 1.06 123.83 1.13 131.15 1.22 C135 1.27 138.85 1.31 142.71 1.33 C146.31 1.35 149.9 1.39 153.5 1.45 C155.45 1.48 157.39 1.48 159.33 1.48 C168.83 1.68 168.83 1.68 171.92 4.55 C174.22 8.12 174.41 11.23 174.44 15.36 C174.46 16.17 174.49 16.99 174.51 17.84 C174.58 20.63 174.61 23.43 174.65 26.23 C174.69 28.36 174.73 30.48 174.77 32.61 C174.88 38.31 174.92 44.01 174.94 49.72 C174.95 52.09 174.97 54.46 175 56.83 C175.04 60.3 175.06 63.76 175.07 67.23 C175.09 68.29 175.11 69.36 175.12 70.45 C175.12 71.92 175.12 71.92 175.12 73.42 C175.12 74.28 175.13 75.14 175.13 76.02 C174.65 78.23 174.65 78.23 172.8 80.01 C169.83 81.69 167.6 81.55 164.19 81.49 C162.93 81.47 161.67 81.46 160.38 81.45 C159.06 81.42 157.75 81.39 156.4 81.36 C148.69 81.23 141.28 81.13 133.65 82.23 C130.93 82.32 128.24 82.37 125.52 82.36 C124.42 82.35 124.42 82.35 123.31 82.34 C117.39 82.29 111.5 82.06 105.59 81.75 C97.48 81.36 89.39 81.11 81.27 80.99 C80.23 80.97 79.2 80.95 78.13 80.93 C73.9 80.87 69.66 80.81 65.43 80.75 C35.28 80.37 35.28 80.37 21.52 75.42 C20.77 75.16 20.02 74.9 19.24 74.63 C1.97 68.56 1.97 68.56 -0.35 66.23 C-0.56 64.4 -0.7 62.55 -0.82 60.71 C-0.9 59.55 -0.97 58.4 -1.05 57.2 C-1.17 55.33 -1.17 55.33 -1.29 53.42 C-1.87 44.75 -2.52 36.12 -3.48 27.48 C-4.38 19.12 -5.1 10.63 -4.35 2.23 C-2.35 0.23 -2.35 0.23 0 0 Z " fill="#61B2E4" transform="translate(1389.3540725708008,561.768795967102)"/>
<path d="M0 0 C1.29 0.02 2.58 0.04 3.91 0.05 C7.42 0.1 10.94 0.16 14.46 0.22 C18.17 0.27 21.88 0.33 25.6 0.38 C31.84 0.47 38.09 0.57 44.34 0.67 C51.5 0.78 58.66 0.89 65.82 1 C72.76 1.1 79.71 1.2 86.65 1.31 C89.58 1.35 92.5 1.4 95.43 1.44 C103.36 1.56 111.3 1.69 119.24 1.87 C121.66 1.92 124.08 1.97 126.51 2 C129.88 2.06 133.24 2.14 136.61 2.23 C138.09 2.25 138.09 2.25 139.61 2.27 C146.13 2.48 146.13 2.48 149.48 4.58 C151.33 7.71 151.38 9.87 151.38 13.5 C151.38 14.48 151.38 14.48 151.39 15.47 C151.41 17.61 151.39 19.75 151.37 21.89 C151.37 23.38 151.37 24.87 151.38 26.35 C151.38 29.47 151.36 32.59 151.34 35.71 C151.31 39.71 151.32 43.7 151.33 47.7 C151.34 50.77 151.33 53.85 151.32 56.92 C151.31 58.39 151.31 59.87 151.31 61.34 C151.32 63.4 151.3 65.46 151.28 67.52 C151.27 68.69 151.27 69.86 151.26 71.07 C150.87 73.95 150.87 73.95 149.49 75.83 C145.15 78.83 137.48 77.06 132.48 76.7 C117.68 75.66 102.87 75.87 88.05 75.93 C79.74 75.96 71.42 75.96 63.11 75.96 C62.27 75.96 61.43 75.96 60.56 75.96 C44.06 75.96 27.57 75.92 11.08 75.74 C8.33 75.71 5.57 75.69 2.82 75.67 C-0.98 75.65 -4.79 75.61 -8.59 75.56 C-9.71 75.55 -10.83 75.55 -11.98 75.55 C-13 75.53 -14.03 75.51 -15.08 75.49 C-16.4 75.48 -16.4 75.48 -17.76 75.46 C-20.92 74.77 -22.13 73.44 -24.13 70.95 C-24.76 67.84 -24.76 67.84 -24.95 64.2 C-24.99 63.54 -25.03 62.89 -25.07 62.21 C-25.19 60.13 -25.28 58.04 -25.38 55.95 C-25.45 54.57 -25.53 53.2 -25.61 51.82 C-26.28 39.82 -26.22 27.89 -25.69 15.88 C-25.65 14.87 -25.61 13.85 -25.57 12.8 C-25.53 11.83 -25.48 10.85 -25.44 9.85 C-25.4 8.98 -25.37 8.11 -25.33 7.21 C-25.13 4.95 -25.13 4.95 -24.13 1.95 C-17.28 -1.48 -7.44 -0.13 0 0 Z " fill="#61B2E4" transform="translate(838.125244140625,564.05419921875)"/>
<path d="M0 0 C0.99 0.01 1.97 0.02 2.99 0.02 C4.69 0.03 4.69 0.03 6.43 0.04 C7.69 0.05 8.94 0.07 10.24 0.08 C11.58 0.09 12.92 0.1 14.26 0.11 C17.95 0.13 21.64 0.17 25.33 0.21 C27.68 0.23 30.03 0.26 32.38 0.28 C48.19 0.42 64 0.61 79.8 0.82 C81.21 0.84 81.21 0.84 82.63 0.85 C86.39 0.9 90.15 0.95 93.9 1 C104.71 1.15 115.51 1.26 126.32 1.32 C131.57 1.35 136.82 1.4 142.07 1.45 C144.45 1.47 146.83 1.48 149.21 1.49 C152.45 1.49 155.68 1.52 158.92 1.56 C159.85 1.56 160.78 1.55 161.73 1.54 C166.06 1.62 168.11 1.84 171.73 4.39 C173.99 7.7 174.35 9.44 174.48 13.43 C174.5 14.06 174.52 14.69 174.55 15.34 C174.62 17.64 174.65 19.94 174.67 22.23 C174.68 23.17 174.69 24.11 174.7 25.08 C174.78 32.78 174.76 40.47 174.73 48.17 C174.73 50.51 174.72 52.85 174.72 55.19 C174.71 60.87 174.69 66.55 174.67 72.23 C173.25 72.08 171.84 71.93 170.42 71.78 C169.63 71.69 168.84 71.61 168.03 71.52 C163.25 70.94 158.55 69.9 153.83 68.95 C127.4 64.1 96.69 66.35 71.64 76.46 C63 79.88 55.74 80.92 46.5 80.68 C45.22 80.66 43.93 80.64 42.61 80.63 C39.93 80.59 37.25 80.53 34.57 80.46 C31.13 80.37 27.7 80.33 24.27 80.29 C20.97 80.26 17.67 80.19 14.37 80.12 C13.14 80.11 11.91 80.09 10.64 80.08 C9.51 80.05 8.37 80.01 7.2 79.97 C6.2 79.95 5.2 79.93 4.17 79.91 C1.67 79.23 1.67 79.23 -0.16 76.84 C-1.45 73.98 -1.64 72.23 -1.52 69.11 C-1.49 68.11 -1.47 67.11 -1.44 66.07 C-1.41 64.99 -1.37 63.91 -1.33 62.8 C-1.14 52.62 -1.71 42.72 -2.83 32.61 C-5.27 10.47 -5.27 10.47 -4.33 2.23 C-2.33 0.23 -2.33 0.23 0 0 Z " fill="#FCEA2B" transform="translate(1389.3323059082031,66.76600646972656)"/>
<path d="M0 0 C1.37 0 1.37 0 2.78 0.01 C5.91 0.02 9.04 0.07 12.17 0.11 C14.42 0.13 16.67 0.15 18.92 0.16 C24.07 0.2 29.21 0.25 34.35 0.32 C40.83 0.4 47.3 0.47 53.78 0.53 C65.12 0.63 76.45 0.74 87.79 0.86 C89.18 0.88 89.18 0.88 90.6 0.89 C109.11 1.09 127.63 1.3 146.14 1.84 C147.32 1.86 148.5 1.89 149.72 1.92 C150.8 1.96 151.88 1.99 152.98 2.03 C153.91 2.06 154.83 2.09 155.79 2.12 C158.62 2.46 160.8 3.16 163.36 4.43 C164.78 7.27 164.5 9.68 164.52 12.86 C164.52 13.52 164.53 14.18 164.53 14.86 C164.55 17.05 164.55 19.24 164.56 21.43 C164.56 22.94 164.57 24.46 164.58 25.98 C164.59 29.16 164.59 32.34 164.6 35.52 C164.6 39.6 164.63 43.68 164.65 47.77 C164.67 50.9 164.68 54.03 164.68 57.17 C164.68 58.67 164.69 60.18 164.7 61.68 C164.72 63.78 164.72 65.89 164.71 67.99 C164.72 69.78 164.72 69.78 164.72 71.62 C164.6 72.54 164.48 73.47 164.36 74.43 C157.91 78.72 146.75 76.55 139.11 76.05 C129.84 75.44 120.63 75.36 111.34 75.5 C107.09 75.57 102.84 75.59 98.58 75.63 C93.23 75.68 87.88 75.74 82.52 75.82 C78.14 75.89 73.75 75.93 69.37 75.96 C67.72 75.97 66.07 75.99 64.41 76.03 C54.26 76.24 46.99 75.31 38.36 69.43 C36.27 68.44 34.17 67.49 32.04 66.61 C31.1 66.21 30.15 65.82 29.18 65.41 C23.86 63.56 18.59 63.27 12.99 63.11 C12.31 63.09 11.63 63.07 10.93 63.05 C8.78 62.98 6.63 62.92 4.48 62.86 C3.01 62.82 1.55 62.78 0.08 62.73 C-3.49 62.63 -7.07 62.52 -10.64 62.43 C-12.03 50.36 -13 38.58 -12.64 26.43 C-12.63 25.51 -12.61 24.6 -12.59 23.66 C-12.52 20.67 -12.43 17.67 -12.33 14.68 C-12.31 13.72 -12.29 12.77 -12.26 11.79 C-12.23 10.89 -12.19 9.99 -12.16 9.07 C-12.13 8.27 -12.1 7.47 -12.08 6.65 C-10.71 -0.38 -6.25 -0.13 0 0 Z " fill="#FCEA2B" transform="translate(266.64453125,68.57421875)"/>
<path d="M0 0 C19.92 -0.06 39.82 0.07 59.74 0.37 C62.63 0.41 65.53 0.46 68.43 0.5 C75.25 0.6 82.08 0.7 88.91 0.8 C95.91 0.9 102.91 1 109.91 1.1 C115.98 1.19 122.06 1.28 128.13 1.37 C131.74 1.42 135.34 1.47 138.94 1.52 C142.93 1.58 146.93 1.64 150.93 1.7 C152.68 1.73 152.68 1.73 154.46 1.75 C157.64 1.8 160.82 1.89 164 2 C165.04 2.03 166.08 2.07 167.15 2.1 C168.62 2.18 168.62 2.18 170.13 2.27 C171 2.31 171.87 2.36 172.76 2.4 C175 3 175 3 176.78 4.8 C178.7 8.25 178.48 11.84 178.51 15.69 C178.53 16.55 178.55 17.41 178.57 18.3 C178.62 21.05 178.65 23.81 178.69 26.56 C178.72 28.36 178.76 30.15 178.79 31.95 C178.88 36.41 178.93 40.87 178.97 45.32 C179 48.04 179.06 50.76 179.12 53.47 C179.15 55.2 179.18 56.93 179.21 58.65 C179.23 59.45 179.25 60.25 179.28 61.07 C179.34 66.5 179.34 66.5 177.67 68.96 C174.25 71.09 171.53 71.06 167.63 70.84 C166.58 70.79 165.53 70.74 164.45 70.68 C162.24 70.56 160.03 70.44 157.82 70.32 C156.77 70.26 155.72 70.21 154.63 70.16 C153.19 70.08 153.19 70.08 151.72 69.99 C149.04 69.91 149.04 69.91 146.59 70.48 C143.31 71.14 140.22 71.13 136.88 71.13 C136.17 71.13 135.47 71.13 134.75 71.14 C133.25 71.14 131.76 71.13 130.26 71.13 C128.09 71.13 125.92 71.13 123.75 71.14 C114.38 71.14 105.05 70.87 95.69 70.51 C85.04 70.11 74.41 69.9 63.75 69.84 C61.34 69.82 58.94 69.81 56.53 69.79 C46.71 69.71 46.71 69.71 36.9 69.67 C32.82 69.66 28.74 69.63 24.66 69.59 C23.13 69.58 21.59 69.58 20.06 69.58 C17.93 69.58 15.82 69.56 13.7 69.53 C12.49 69.52 11.29 69.52 10.06 69.51 C6.4 68.9 5.21 67.92 3 65 C2.59 62.47 2.59 62.47 2.71 59.57 C2.74 58.48 2.77 57.39 2.8 56.26 C2.85 55.08 2.89 53.9 2.94 52.69 C3.25 37.98 1.96 23.68 0.28 9.08 C0 6.04 -0.02 3.06 0 0 Z " fill="#EA5A47" transform="translate(153,313)"/>
<path d="M0 0 C1.35 -0 1.35 -0 2.73 -0.01 C4.17 0 4.17 0 5.65 0.01 C7.17 0.01 7.17 0.01 8.73 0.02 C18.77 0.08 28.79 0.47 38.82 0.93 C44.13 1.17 49.45 1.4 54.77 1.62 C55.83 1.67 56.89 1.71 57.99 1.76 C68.01 2.18 78.03 2.46 88.06 2.69 C100.82 3 113.56 3.41 126.31 4.13 C127.8 7.1 127.46 10.13 127.45 13.39 C127.46 14.14 127.46 14.89 127.46 15.66 C127.47 18.14 127.48 20.62 127.48 23.1 C127.48 24.82 127.48 26.54 127.49 28.26 C127.49 31.86 127.49 35.46 127.49 39.07 C127.49 43.7 127.51 48.32 127.52 52.95 C127.54 56.5 127.54 60.05 127.54 63.6 C127.54 65.31 127.54 67.01 127.55 68.72 C127.56 71.1 127.56 73.48 127.55 75.87 C127.56 76.58 127.56 77.29 127.57 78.02 C127.54 82.9 127.54 82.9 125.31 85.13 C118.63 86.14 111.92 86.4 105.17 86.67 C104.12 86.71 103.08 86.75 102 86.8 C99.81 86.89 97.61 86.97 95.41 87.06 C92.08 87.19 88.76 87.33 85.43 87.47 C69.79 88.11 54.38 88.29 38.75 87.32 C38.04 87.27 37.33 87.23 36.61 87.19 C26.28 86.55 15.98 85.71 5.68 84.63 C4.54 84.51 3.39 84.39 2.21 84.27 C-8.63 83.07 -8.63 83.07 -13.69 81.13 C-15.74 78.06 -15.94 77.45 -15.95 73.99 C-15.96 73.16 -15.96 72.33 -15.97 71.47 C-15.96 70.11 -15.96 70.11 -15.96 68.73 C-15.96 67.79 -15.96 66.84 -15.96 65.87 C-15.96 63.86 -15.96 61.84 -15.95 59.83 C-15.94 56.83 -15.95 53.83 -15.96 50.83 C-15.97 41.08 -15.71 31.42 -14.8 21.72 C-14.72 20.88 -14.65 20.05 -14.57 19.19 C-13.04 4.48 -13.04 4.48 -9.69 1.13 C-6.43 0.27 -3.36 0 0 0 Z " fill="#8967AA" transform="translate(18.691162109375,469.869384765625)"/>
<path d="M0 0 C1.2 -0 1.2 -0 2.42 -0 C5.13 -0 7.83 0.02 10.54 0.05 C12.48 0.06 14.42 0.07 16.36 0.08 C35.71 0.21 55.07 0.76 74.41 1.3 C75.19 1.32 75.97 1.34 76.77 1.37 C106.25 2.19 106.25 2.19 118.59 2.8 C120.44 2.89 120.44 2.89 122.34 2.99 C125.16 3.36 125.16 3.36 128.16 5.36 C128.56 8.3 128.77 11.04 128.85 13.99 C128.89 14.75 128.92 15.51 128.96 16.3 C129.27 24.32 129.2 32.34 129.16 40.36 C129.16 41.12 129.16 41.88 129.16 42.66 C129.14 47.46 129.09 52.25 129.01 57.05 C128.99 58.69 128.97 60.34 128.97 61.98 C128.96 64.4 128.92 66.82 128.87 69.25 C128.88 69.97 128.88 70.7 128.88 71.45 C128.76 75.64 128.07 79.15 125.09 82.25 C120.47 84.92 114.68 84.31 109.49 84.35 C108.13 84.38 106.76 84.42 105.4 84.45 C101.8 84.54 98.2 84.6 94.61 84.64 C91.01 84.7 87.41 84.78 83.81 84.86 C79.64 84.95 75.48 85.04 71.31 85.11 C64.31 85.24 57.34 85.46 50.36 85.95 C44.08 86.37 38.05 86.29 31.79 85.68 C30.8 85.59 29.82 85.5 28.8 85.4 C20.69 84.61 12.61 83.57 4.54 82.43 C3.4 82.27 2.25 82.11 1.07 81.95 C-11.07 80.13 -11.07 80.13 -15.84 75.36 C-16.72 72.66 -16.96 70.19 -16.97 67.36 C-16.97 66.57 -16.97 65.78 -16.97 64.97 C-16.97 64.11 -16.97 63.25 -16.96 62.36 C-16.96 61.46 -16.96 60.55 -16.95 59.62 C-16.63 10.31 -16.63 10.31 -12.84 3.36 C-8.72 0.16 -5.03 -0.06 0 0 Z " fill="#FCEA2B" transform="translate(1583.8359375,63.63671875)"/>
<path d="M0 0 C1.17 0.02 2.34 0.03 3.55 0.05 C6.2 0.09 8.86 0.14 11.52 0.19 C16.29 0.29 21.07 0.33 25.85 0.37 C35.11 0.45 44.36 0.54 53.62 0.65 C57.46 0.69 61.3 0.74 65.13 0.77 C90.09 1.03 115.02 1.48 139.96 2.28 C139.96 2.94 139.96 3.6 139.96 4.28 C137.41 6 137.41 6 134.09 7.9 C133 8.53 131.91 9.17 130.79 9.82 C127.96 11.28 127.96 11.28 125.96 11.28 C133.37 24.49 141.07 37.51 149 50.42 C152.23 55.7 155.45 60.99 158.54 66.36 C159.03 67.22 159.53 68.07 160.04 68.95 C160.96 71.28 160.96 71.28 160.93 73.46 C159.96 75.28 159.96 75.28 157.83 76.41 C154.36 77.46 151.79 77.31 148.18 77.01 C146.75 76.91 145.32 76.81 143.89 76.71 C143.12 76.65 142.35 76.6 141.56 76.54 C123.53 75.25 105.58 75.22 87.52 75.48 C84.14 75.52 80.76 75.56 77.38 75.6 C60.64 75.78 60.64 75.78 43.9 76.07 C37.64 76.2 31.39 76.29 25.13 76.33 C21.85 76.35 18.57 76.4 15.29 76.48 C-4.38 77.01 -4.38 77.01 -8.8 74.13 C-11.82 70.99 -13.06 67.44 -14.04 63.28 C-14.26 62.37 -14.48 61.47 -14.7 60.54 C-15.18 58.18 -15.36 55.93 -15.47 53.53 C-15.53 52.67 -15.6 51.81 -15.66 50.92 C-15.83 48.37 -15.94 45.83 -16.04 43.28 C-16.06 42.59 -16.09 41.9 -16.12 41.18 C-16.24 37.32 -16.21 33.46 -16.1 29.6 C-16.05 27.87 -16.02 26.14 -15.99 24.41 C-15.94 21.28 -15.87 18.16 -15.79 15.03 C-15.77 14.03 -15.76 13.02 -15.74 11.99 C-15.71 11.05 -15.68 10.11 -15.64 9.14 C-15.62 8.3 -15.6 7.46 -15.58 6.59 C-13.68 -1.45 -6.73 -0.2 0 0 Z " fill="#EA5A47" transform="translate(270.03515625,391.72265625)"/>
<path d="M0 0 C1.81 0.01 1.81 0.01 3.66 0.02 C40.71 0.4 40.71 0.4 45.56 5.25 C47.14 13.91 46.72 22.92 46.69 31.69 C46.69 32.45 46.69 33.21 46.68 33.99 C46.66 44.59 46.5 55.16 46.12 65.75 C46.07 67.44 46.07 67.44 46.01 69.16 C45.69 76.86 45.69 76.86 44.56 80.25 C37.74 83.66 27.55 82.41 20.06 82.42 C19 82.42 17.93 82.43 16.83 82.43 C13.41 82.44 9.99 82.44 6.56 82.44 C5.39 82.44 4.21 82.44 3 82.44 C-10.44 82.43 -23.8 82.37 -37.19 81.1 C-44.52 80.42 -51.84 80.03 -59.2 79.74 C-60.25 79.7 -61.3 79.66 -62.38 79.62 C-66.64 79.45 -70.91 79.29 -75.18 79.14 C-78.16 79.04 -81.15 78.93 -84.13 78.81 C-85.04 78.79 -85.95 78.76 -86.89 78.73 C-87.72 78.7 -88.56 78.66 -89.42 78.63 C-90.15 78.6 -90.88 78.58 -91.63 78.55 C-93.44 78.25 -93.44 78.25 -95.44 76.25 C-95.85 73.85 -95.85 73.85 -96.07 70.81 C-96.2 69.12 -96.2 69.12 -96.33 67.39 C-96.4 66.17 -96.48 64.95 -96.56 63.69 C-96.65 62.43 -96.73 61.18 -96.81 59.89 C-99.5 16.02 -99.5 16.02 -93.19 5.09 C-91.44 3.25 -91.44 3.25 -89.14 2.74 C-88.23 2.74 -87.33 2.74 -86.4 2.74 C-85.37 2.72 -84.34 2.71 -83.28 2.7 C-81.6 2.7 -81.6 2.7 -79.89 2.71 C-78.72 2.7 -77.56 2.69 -76.36 2.68 C-72.61 2.64 -68.87 2.63 -65.12 2.62 C-60.25 2.6 -55.38 2.57 -50.51 2.52 C-49.31 2.51 -48.12 2.5 -46.88 2.49 C-38.48 2.38 -30.19 1.82 -21.83 0.96 C-14.53 0.22 -7.34 -0.06 0 0 Z " fill="#EA5A47" transform="translate(758.4375,388.75)"/>
<path d="M0 0 C1.21 0 1.21 0 2.45 0.01 C39.64 0.14 39.64 0.14 44.75 5.25 C45.58 10.58 45.9 15.78 45.88 21.18 C45.89 22.28 45.89 22.28 45.89 23.41 C45.89 25.79 45.88 28.18 45.88 30.56 C45.87 31.38 45.87 32.19 45.87 33.03 C45.85 38.77 45.81 44.51 45.75 50.25 C45.74 50.98 45.74 51.7 45.73 52.45 C45.69 56.91 45.61 61.36 45.5 65.81 C45.49 66.92 45.47 68.03 45.46 69.18 C45.43 70.19 45.39 71.21 45.36 72.25 C45.34 73.13 45.32 74 45.3 74.9 C44.55 78.11 43.38 79.3 40.75 81.25 C38.05 81.8 38.05 81.8 34.93 81.86 C33.77 81.89 32.61 81.92 31.41 81.96 C29.54 81.98 29.54 81.98 27.62 82 C25.66 82.04 25.66 82.04 23.65 82.08 C20.95 82.13 18.25 82.17 15.55 82.2 C12.28 82.24 9.01 82.32 5.74 82.41 C-10.96 82.74 -27.57 81.51 -44.22 80.39 C-57.62 79.49 -70.98 78.83 -84.4 78.63 C-86.12 78.59 -86.12 78.59 -87.86 78.56 C-88.84 78.55 -89.82 78.53 -90.83 78.52 C-93.25 78.25 -93.25 78.25 -96.25 76.25 C-96.74 74.4 -96.74 74.4 -96.9 72.19 C-96.97 71.38 -97.03 70.57 -97.1 69.74 C-97.15 68.92 -97.2 68.1 -97.25 67.25 C-97.33 66.16 -97.33 66.16 -97.41 65.04 C-100.81 16.55 -100.81 16.55 -93.97 5.11 C-92.25 3.25 -92.25 3.25 -90.19 2.74 C-89.4 2.74 -88.61 2.74 -87.79 2.74 C-86.89 2.72 -85.99 2.71 -85.05 2.7 C-84.07 2.7 -83.09 2.71 -82.08 2.71 C-81.06 2.7 -80.03 2.69 -78.97 2.68 C-75.67 2.64 -72.37 2.63 -69.06 2.62 C-64.78 2.6 -60.49 2.57 -56.21 2.52 C-55.13 2.51 -54.06 2.5 -52.96 2.49 C-44.54 2.37 -36.22 1.74 -27.84 0.96 C-18.54 0.13 -9.32 -0.06 0 0 Z " fill="#61B2E4" transform="translate(759.25,560.75)"/>
<path d="M0 0 C1.07 0 1.07 0 2.16 0.01 C11.33 0.05 20.48 0.29 29.62 1.06 C30.49 1.13 31.36 1.2 32.25 1.27 C36.95 1.75 41.05 2.29 44.88 5.25 C45.85 10.67 46.02 16 46.01 21.49 C46.01 22.26 46.01 23.03 46.01 23.82 C46.01 25.44 46.01 27.05 46.01 28.67 C46 31.08 46.01 33.5 46.01 35.91 C46.02 44.64 45.8 53.32 45.22 62.03 C44.93 66.48 44.86 70.87 44.95 75.33 C44.88 77.25 44.88 77.25 43.95 79.77 C40.49 82.24 36.84 81.94 32.69 82 C31.71 82.03 30.74 82.05 29.73 82.08 C26.45 82.16 23.16 82.2 19.88 82.25 C18.23 82.29 18.23 82.29 16.56 82.33 C-4.27 82.81 -24.96 81.66 -45.75 80.39 C-59.28 79.56 -72.78 78.85 -86.33 78.63 C-87.36 78.61 -88.39 78.58 -89.45 78.56 C-90.32 78.55 -91.18 78.53 -92.08 78.52 C-94.12 78.25 -94.12 78.25 -96.12 76.25 C-96.52 74.4 -96.52 74.4 -96.71 72.19 C-96.79 71.38 -96.86 70.58 -96.94 69.74 C-97 68.92 -97.06 68.1 -97.12 67.25 C-97.18 66.52 -97.24 65.78 -97.29 65.03 C-100.58 16.52 -100.58 16.52 -93.86 5.09 C-92.12 3.25 -92.12 3.25 -89.99 2.74 C-89.16 2.74 -88.34 2.74 -87.48 2.74 C-86.54 2.72 -85.6 2.71 -84.62 2.7 C-83.6 2.7 -82.58 2.71 -81.52 2.71 C-80.45 2.7 -79.38 2.69 -78.27 2.68 C-74.83 2.64 -71.38 2.63 -67.94 2.62 C-63.46 2.6 -58.99 2.57 -54.52 2.52 C-52.85 2.51 -52.85 2.51 -51.14 2.49 C-42.55 2.37 -34.06 1.75 -25.51 0.96 C-16.99 0.19 -8.55 -0.07 0 0 Z " fill="#F4AA41" transform="translate(759.125,227.75)"/>
<path d="M0 0 C0.76 0.07 1.52 0.14 2.3 0.21 C6.43 0.7 9.68 1.37 12.81 4.19 C13.81 9.19 13.96 14.15 13.95 19.23 C13.95 20.38 13.95 20.38 13.95 21.54 C13.95 24.01 13.95 26.47 13.94 28.94 C13.94 29.78 13.93 30.62 13.93 31.48 C13.91 37.38 13.87 43.29 13.81 49.19 C13.81 49.92 13.8 50.66 13.79 51.42 C13.75 55.88 13.67 60.35 13.56 64.81 C13.55 65.92 13.53 67.02 13.52 68.16 C13.49 69.17 13.46 70.18 13.42 71.23 C13.4 72.09 13.38 72.96 13.36 73.86 C12.61 77.06 11.37 78.15 8.81 80.19 C5.88 80.68 5.88 80.68 2.41 80.67 C1.1 80.68 -0.2 80.69 -1.54 80.69 C-2.97 80.68 -4.41 80.66 -5.84 80.65 C-7.33 80.65 -8.82 80.65 -10.31 80.65 C-13.46 80.64 -16.6 80.63 -19.75 80.6 C-23.68 80.57 -27.62 80.56 -31.55 80.56 C-49.31 80.56 -66.9 79.98 -84.61 78.65 C-90.23 78.24 -95.82 77.97 -101.45 77.84 C-102.18 77.83 -102.9 77.81 -103.65 77.8 C-106.46 77.74 -109.27 77.7 -112.08 77.66 C-114.23 77.62 -116.37 77.58 -118.51 77.53 C-119.73 77.51 -120.95 77.49 -122.2 77.47 C-125.19 77.19 -125.19 77.19 -128.19 75.19 C-128.71 72.7 -128.71 72.7 -128.92 69.53 C-129 68.35 -129.08 67.18 -129.16 65.97 C-129.23 64.7 -129.3 63.43 -129.38 62.12 C-129.45 60.83 -129.53 59.53 -129.61 58.19 C-132.21 13.02 -132.21 13.02 -125.19 2.19 C-121.25 0.88 -117.53 1.1 -113.44 1.16 C-111.63 1.17 -109.82 1.19 -108.01 1.2 C-107.06 1.21 -106.11 1.22 -105.13 1.23 C-91.88 1.33 -78.71 1.43 -65.5 0.19 C-43.96 -1.78 -21.55 -2.04 0 0 Z " fill="#FCEA2B" transform="translate(791.1875,66.8125)"/>
<path d="M0 0 C1.04 0.01 1.04 0.01 2.11 0.01 C2.84 0.01 3.56 0.01 4.32 0.01 C6.76 0.01 9.19 0.02 11.63 0.03 C13.36 0.04 15.08 0.04 16.8 0.05 C45.14 0.12 73.48 0.54 101.82 0.92 C110.53 1.04 119.24 1.15 127.94 1.22 C133.42 1.27 138.91 1.33 144.39 1.4 C146.54 1.42 148.69 1.44 150.85 1.45 C153.75 1.47 156.65 1.51 159.55 1.55 C160.38 1.55 161.21 1.55 162.06 1.54 C165.42 1.62 167.75 1.88 170.64 3.65 C172.75 7.12 172.75 10.35 172.75 14.3 C172.77 15.1 172.79 15.9 172.8 16.73 C172.85 19.3 172.87 21.87 172.89 24.44 C172.92 26.12 172.95 27.81 172.98 29.49 C173.15 39.37 173.14 49.24 173.14 59.12 C146.08 58.79 119.02 58.46 91.14 58.12 C91.14 62.08 91.14 66.04 91.14 70.12 C80.31 70.02 69.48 69.9 58.65 69.79 C53.62 69.73 48.59 69.68 43.56 69.63 C38.7 69.58 33.85 69.53 28.99 69.47 C27.14 69.45 25.29 69.43 23.44 69.42 C20.84 69.39 18.25 69.36 15.65 69.33 C14.89 69.32 14.13 69.32 13.35 69.31 C1.22 69.15 1.22 69.15 -1.79 66.28 C-3.43 61.4 -3.03 56.72 -2.86 51.62 C-2.62 39.01 -3.73 26.76 -5.2 14.24 C-5.71 9.82 -6.11 5.56 -5.86 1.12 C-4.2 -0.53 -2.21 0 0 0 Z " fill="#EA5A47" transform="translate(716.8556385040283,313.87554359436035)"/>
<path d="M0 0 C22.38 -0.17 44.75 0.12 67.12 0.5 C67.84 0.51 68.55 0.52 69.28 0.54 C78.19 0.69 87.09 0.84 96 1 C96 13.54 96 26.08 96 39 C101.07 38.75 101.07 38.75 106.25 38.5 C124.62 37.7 143 37.7 161.38 38.44 C162.36 38.48 163.35 38.52 164.36 38.56 C169 38.77 173.43 39.19 178 40 C178.1 45.36 178.17 50.71 178.22 56.07 C178.24 57.89 178.27 59.72 178.3 61.54 C178.35 64.16 178.37 66.78 178.39 69.39 C178.41 70.21 178.43 71.03 178.45 71.87 C178.46 77.43 178.46 77.43 176.38 80.02 C173.29 81.29 170.89 81.32 167.55 81.26 C166.29 81.24 165.03 81.23 163.73 81.21 C162.42 81.19 161.1 81.16 159.75 81.12 C152.05 80.99 144.63 80.89 137 82 C128.1 82.31 119.22 82 110.32 81.52 C100.04 81 89.76 80.78 79.46 80.65 C74.27 80.58 69.08 80.48 63.89 80.4 C57.34 80.29 50.79 80.18 44.23 80.1 C38.88 80.03 33.53 79.95 28.17 79.84 C26.14 79.81 24.11 79.78 22.08 79.76 C19.27 79.73 16.45 79.68 13.64 79.62 C12.8 79.62 11.97 79.62 11.11 79.61 C5.5 79.46 5.5 79.46 2.98 77.12 C1.73 74.41 1.71 72.49 1.81 69.5 C1.84 68.4 1.86 67.3 1.89 66.16 C1.93 64.98 1.96 63.79 2 62.56 C2.18 52.15 1.7 42.03 0.5 31.69 C-2.34 7.03 -2.34 7.03 0 0 Z " fill="#8967AA" transform="translate(712,475)"/>
<path d="M0 0 C1.71 0.07 3.42 0.13 5.13 0.2 C9.64 0.37 14.15 0.56 18.66 0.74 C25.75 1.03 32.84 1.31 39.92 1.58 C41.68 1.65 43.44 1.72 45.2 1.79 C54.97 2.18 64.74 2.52 74.51 2.77 C75.82 2.8 75.82 2.8 77.16 2.83 C81.33 2.93 85.5 3.03 89.66 3.12 C91.15 3.15 92.64 3.18 94.13 3.22 C95.42 3.24 96.7 3.27 98.03 3.3 C101.64 3.48 105.07 3.91 108.64 4.48 C108.73 13.42 108.8 22.37 108.85 31.31 C108.87 35.46 108.9 39.62 108.94 43.77 C108.99 47.78 109.01 51.78 109.02 55.79 C109.03 57.32 109.04 58.85 109.06 60.38 C109.09 62.52 109.1 64.66 109.09 66.8 C109.1 68.02 109.11 69.24 109.12 70.5 C108.64 73.48 108.64 73.48 106.9 75.36 C104.44 76.58 102.81 76.9 100.09 77 C99.18 77.04 98.28 77.08 97.35 77.12 C96.38 77.15 95.41 77.18 94.41 77.21 C93.4 77.25 92.38 77.29 91.34 77.33 C88.04 77.46 84.75 77.56 81.45 77.66 C79.18 77.74 76.91 77.82 74.64 77.9 C69.22 78.09 63.79 78.25 58.37 78.4 C56.08 78.46 53.8 78.53 51.51 78.61 C27.22 79.32 2.56 77.01 -21.55 74.04 C-22.41 73.94 -23.28 73.84 -24.17 73.74 C-28.92 73.09 -31.4 72.27 -34.36 68.48 C-34.75 65.99 -34.75 65.99 -34.6 63.16 C-34.55 62.08 -34.51 61 -34.46 59.89 C-34.35 58.14 -34.35 58.14 -34.23 56.35 C-34.17 55.14 -34.11 53.93 -34.05 52.68 C-33.91 50.03 -33.77 47.39 -33.61 44.75 C-33.39 41.03 -33.2 37.3 -33.02 33.58 C-32.87 30.49 -32.7 27.4 -32.54 24.31 C-32.46 22.8 -32.38 21.3 -32.31 19.79 C-32.2 17.66 -32.08 15.54 -31.96 13.42 C-31.89 12.2 -31.82 10.98 -31.75 9.72 C-31.37 6.6 -30.79 4.27 -29.36 1.48 C-21.08 -2.67 -9.03 -0.38 0 0 Z " fill="#F4AA41" transform="translate(37.359375,146.5234375)"/>
<path d="M0 0 C1.87 0 1.87 0 3.77 0 C19.05 0.06 34.31 0.77 49.57 1.4 C65.54 2.06 81.5 2.54 97.48 2.85 C98.27 2.86 99.06 2.88 99.88 2.89 C101.97 2.94 104.06 2.98 106.15 3.01 C111.97 3.18 117.76 3.71 123.56 4.19 C123.63 13 123.69 21.82 123.72 30.63 C123.73 34.72 123.75 38.82 123.79 42.91 C123.82 46.86 123.84 50.81 123.85 54.75 C123.85 56.26 123.86 57.77 123.88 59.28 C123.9 61.39 123.9 63.5 123.9 65.6 C123.91 67.41 123.91 67.41 123.92 69.25 C123.56 72.19 123.56 72.19 122.29 74.07 C120.23 75.41 118.98 75.61 116.52 75.71 C115.71 75.75 114.89 75.79 114.05 75.83 C113.17 75.86 112.28 75.89 111.37 75.92 C110.44 75.96 109.51 76 108.56 76.04 C105.52 76.17 102.48 76.27 99.44 76.38 C97.33 76.45 95.22 76.53 93.11 76.61 C86.93 76.84 80.75 77.02 74.56 77.19 C73.73 77.21 72.91 77.23 72.05 77.26 C51.03 77.81 30.35 76.62 9.44 74.56 C6.04 74.23 2.65 73.93 -0.75 73.65 C-2.46 73.5 -4.17 73.34 -5.88 73.19 C-6.6 73.13 -7.33 73.07 -8.08 73.01 C-12.22 72.6 -15.09 71.69 -18.44 69.19 C-20 66.06 -19.6 62.72 -19.61 59.28 C-19.61 58.48 -19.61 57.68 -19.62 56.85 C-19.62 55.15 -19.62 53.44 -19.62 51.74 C-19.62 49.19 -19.64 46.64 -19.66 44.09 C-19.77 11.86 -19.77 11.86 -14.44 1.19 C-9.71 -0.39 -4.95 -0 0 0 Z " fill="#EA5A47" transform="translate(22.4375,308.8125)"/>
<path d="M0 0 C1.06 0.01 1.06 0.01 2.14 0.02 C4.47 0.05 6.81 0.09 9.15 0.12 C10.78 0.15 12.42 0.17 14.06 0.19 C17.5 0.23 20.94 0.28 24.38 0.33 C28.74 0.4 33.1 0.46 37.47 0.51 C40.86 0.56 44.25 0.6 47.63 0.65 C49.24 0.67 50.84 0.7 52.45 0.72 C56.91 0.77 61.37 0.86 65.83 0.98 C67.35 1.02 68.87 1.05 70.4 1.07 C72.72 1.1 75.05 1.16 77.37 1.23 C78.08 1.24 78.78 1.24 79.5 1.24 C83.34 1.39 84.88 1.89 87.76 4.49 C89.98 7.59 91.66 10.8 93.29 14.23 C93.95 15.46 94.6 16.7 95.27 17.93 C96.6 20.43 97.91 22.93 99.19 25.46 C101.8 30.56 104.77 35.45 107.73 40.35 C108.77 42.12 109.81 43.88 110.85 45.65 C113.11 49.48 115.41 53.29 117.74 57.08 C118.65 58.58 118.65 58.58 119.57 60.1 C120.73 62.01 121.9 63.91 123.08 65.81 C127.99 73.93 127.99 73.93 127.04 79.04 C124.81 81.89 123.49 82.89 120.04 84.04 C118.32 84.15 116.59 84.2 114.86 84.23 C113.27 84.25 113.27 84.25 111.65 84.28 C110.51 84.29 109.36 84.3 108.18 84.32 C106.99 84.34 105.81 84.36 104.58 84.37 C100.78 84.43 96.97 84.49 93.17 84.54 C89.4 84.59 85.63 84.64 81.86 84.7 C79.52 84.74 77.17 84.77 74.83 84.8 C68.12 84.9 61.48 85.25 54.8 85.81 C40.53 86.99 26.52 85.23 12.36 83.45 C9.26 83.06 6.15 82.7 3.04 82.35 C1.25 82.12 -0.54 81.89 -2.33 81.66 C-3.14 81.57 -3.95 81.48 -4.78 81.39 C-10 80.66 -12.53 79.3 -15.96 75.04 C-17.23 72.49 -17.09 70.7 -17.09 67.85 C-17.09 66.77 -17.09 65.69 -17.09 64.58 C-17.09 63.41 -17.09 62.24 -17.08 61.04 C-17.08 59.83 -17.07 58.63 -17.07 57.39 C-16.83 14.47 -16.83 14.47 -13.96 4.04 C-9.77 -0.06 -5.63 -0.08 0 0 Z " fill="#8967AA" transform="translate(351.95556640625,470.96240234375)"/>
<path d="M0 0 C0.65 0 1.3 0 1.97 0 C4.15 0.01 6.32 0.03 8.5 0.06 C10.06 0.08 11.62 0.09 13.18 0.1 C32.43 0.27 51.67 1.01 70.91 1.74 C75.87 1.92 80.82 2.1 85.78 2.28 C95.4 2.63 105.02 2.98 114.64 3.35 C115.43 5.09 116.23 6.84 117.02 8.58 C117.46 9.55 117.91 10.53 118.36 11.53 C120 15.14 121.61 18.77 123.2 22.41 C123.48 23.04 123.76 23.67 124.04 24.32 C124.62 25.63 125.18 26.94 125.73 28.26 C126.62 30.38 126.62 30.38 127.75 32.47 C131.66 40.57 130.9 48.68 130.45 57.41 C130.39 58.94 130.33 60.48 130.28 62.02 C129.83 73.16 129.83 73.16 128.64 74.35 C122.87 75.39 117.11 75.64 111.26 75.88 C109.76 75.95 109.76 75.95 108.23 76.01 C106.11 76.1 103.99 76.19 101.87 76.28 C98.7 76.41 95.54 76.54 92.38 76.68 C72.04 77.55 51.88 77.79 31.58 76.03 C30.77 75.97 29.96 75.9 29.13 75.83 C23.63 75.36 18.13 74.87 12.64 74.35 C10.76 74.17 10.76 74.17 8.85 73.99 C5.73 73.68 2.62 73.34 -0.49 72.97 C-1.35 72.88 -2.22 72.79 -3.12 72.7 C-3.9 72.6 -4.69 72.49 -5.49 72.38 C-6.15 72.3 -6.81 72.22 -7.49 72.14 C-10.63 70.81 -11.66 69.31 -13.36 66.35 C-13.88 62.85 -13.76 59.41 -13.64 55.88 C-13.62 54.86 -13.6 53.84 -13.58 52.79 C-13.53 50.62 -13.47 48.45 -13.4 46.28 C-13.3 43.02 -13.23 39.75 -13.18 36.48 C-12.52 7.84 -12.52 7.84 -8.2 1.7 C-5.48 -0.3 -3.35 -0.02 0 0 Z " fill="#EA5A47" transform="translate(1248.360595703125,396.654296875)"/>
<path d="M0 0 C19.06 2.8 38.47 1.3 57.6 0.05 C58.32 0.01 59.03 -0.04 59.77 -0.09 C61.72 -0.21 63.68 -0.34 65.63 -0.47 C69.55 -0.67 73.42 -0.67 77.33 -0.66 C77.35 9.49 77.37 19.65 77.38 29.8 C77.39 34.51 77.39 39.23 77.41 43.94 C77.42 48.49 77.42 53.03 77.43 57.58 C77.43 59.31 77.43 61.05 77.44 62.79 C77.44 65.22 77.44 67.64 77.44 70.07 C77.45 70.79 77.45 71.52 77.45 72.27 C77.44 77.23 77.44 77.23 76.33 78.34 C56.14 80.5 36.75 79.18 16.78 75.81 C7.41 74.55 -1.85 74.22 -11.29 74.35 C-13.65 74.37 -16.01 74.38 -18.37 74.4 C-22.04 74.43 -25.71 74.47 -29.38 74.51 C-32.96 74.56 -36.53 74.58 -40.11 74.6 C-41.21 74.62 -42.31 74.64 -43.44 74.66 C-44.98 74.66 -44.98 74.66 -46.54 74.67 C-47.44 74.68 -48.33 74.69 -49.26 74.7 C-52.18 74.27 -53.53 73.34 -55.67 71.34 C-57.19 66.96 -56.85 62.07 -56.85 57.47 C-56.84 56.59 -56.84 55.72 -56.84 54.82 C-56.76 45.26 -56.01 35.77 -55.13 26.25 C-54.85 23.29 -54.6 20.32 -54.35 17.36 C-54.18 15.46 -54.01 13.56 -53.84 11.65 C-53.77 10.78 -53.69 9.9 -53.62 8.99 C-52.85 1.15 -52.85 1.15 -49.67 -1.66 C-35.68 -7.17 -14.42 -2.15 0 0 Z " fill="#EA5A47" transform="translate(1724.66943359375,318.658203125)"/>
<path d="M0 0 C10.6 -0.21 20.89 0.93 31.39 2.24 C49.81 4.53 67.9 4.93 86.45 3.74 C96.12 3.14 105.82 3.24 115.51 3.24 C115.51 28.98 115.51 54.72 115.51 81.24 C98.6 82.54 82.29 83.19 65.53 80.47 C45.52 77.23 25.63 77.03 5.41 77.35 C2.18 77.4 -1.05 77.43 -4.29 77.46 C-5.27 77.48 -6.25 77.5 -7.27 77.53 C-8.63 77.54 -8.63 77.54 -10.01 77.55 C-10.81 77.56 -11.6 77.57 -12.42 77.59 C-15.03 77.15 -15.88 76.29 -17.49 74.24 C-18.91 69.77 -18.67 65.01 -18.66 60.36 C-18.66 59.49 -18.66 58.62 -18.66 57.72 C-18.57 48.16 -17.83 38.67 -16.94 29.15 C-16.67 26.19 -16.42 23.22 -16.17 20.25 C-16 18.35 -15.83 16.45 -15.66 14.55 C-15.58 13.67 -15.51 12.79 -15.44 11.89 C-14.67 4.04 -14.67 4.04 -11.49 1.24 C-7.61 0.48 -3.93 0.27 0 0 Z " fill="#8967AA" transform="translate(1686.48828125,476.76171875)"/>
<path d="M0 0 C0.85 -0.01 1.71 -0.01 2.59 -0.02 C3.99 -0.01 3.99 -0.01 5.43 -0.01 C6.42 -0.01 7.42 -0.01 8.45 -0.01 C11.78 -0.02 15.12 -0.01 18.45 0.01 C19.6 0.01 20.75 0.01 21.93 0.02 C42.53 0.06 63.11 0.55 83.7 1.2 C84.4 1.22 85.1 1.24 85.83 1.26 C90.55 1.41 95.28 1.56 100.01 1.72 C101.18 1.76 102.36 1.8 103.57 1.84 C106.99 1.96 110.41 2.1 113.83 2.26 C114.81 2.3 114.81 2.3 115.82 2.35 C117.86 2.44 119.9 2.55 121.94 2.67 C123.77 2.76 123.77 2.76 125.64 2.86 C128.56 3.23 130.35 3.74 132.83 5.26 C132.82 5.88 132.82 6.51 132.81 7.15 C132.79 10.02 132.78 12.89 132.76 15.76 C132.75 16.74 132.75 17.72 132.74 18.74 C132.72 23 132.73 27.17 133.32 31.4 C133.89 35.79 133.98 40.03 133.95 44.45 C133.95 45.27 133.94 46.1 133.94 46.95 C133.76 67.02 133.76 67.02 129.83 72.26 C126.76 74.18 124.35 74.52 120.76 74.56 C119.75 74.58 118.74 74.6 117.7 74.61 C116.07 74.62 116.07 74.62 114.4 74.64 C113.27 74.65 112.14 74.67 110.97 74.69 C107.34 74.74 103.71 74.78 100.08 74.82 C95.33 74.88 90.59 74.94 85.84 75.01 C84.69 75.03 83.54 75.04 82.36 75.06 C76.28 75.16 70.25 75.36 64.19 75.79 C49.92 76.78 36.24 76.13 22.08 74.32 C20.56 74.14 19.04 73.95 17.52 73.77 C5.85 72.34 5.85 72.34 0.83 71.26 C0.79 70.71 0.75 70.15 0.71 69.58 C-0.43 54.4 -2.34 40.56 -8.49 26.51 C-11.32 19.97 -12.12 14.21 -10.17 7.26 C-7.73 2.46 -5.54 0.01 0 0 Z " fill="#F4AA41" transform="translate(347.17431640625,147.7412109375)"/>
<path d="M0 0 C17.47 -0.02 34.93 -0.04 52.4 -0.05 C60.52 -0.06 68.63 -0.06 76.75 -0.08 C139.37 -0.16 139.37 -0.16 162.43 0.44 C163.6 0.47 163.6 0.47 164.8 0.5 C176.81 0.81 176.81 0.81 178 2 C178.11 3.6 178.16 5.21 178.18 6.82 C178.2 8.37 178.2 8.37 178.22 9.94 C178.22 11.06 178.23 12.18 178.24 13.33 C178.25 14.48 178.25 15.62 178.26 16.8 C178.28 19.22 178.29 21.65 178.3 24.07 C178.31 27.79 178.36 31.5 178.4 35.21 C178.41 37.57 178.42 39.92 178.43 42.27 C178.45 43.94 178.45 43.94 178.48 45.64 C178.47 47.2 178.47 47.2 178.47 48.79 C178.48 49.7 178.48 50.61 178.49 51.55 C177.84 54.79 176.56 55.98 174 58 C170.95 58.44 170.95 58.44 167.4 58.36 C166.1 58.34 164.81 58.32 163.47 58.3 C162.11 58.27 160.74 58.23 159.38 58.19 C156.72 58.13 154.06 58.09 151.4 58.04 C150.22 58.01 149.04 57.98 147.83 57.95 C144.92 57.99 142.25 58.18 139.38 58.52 C133.06 59.2 126.83 58.89 120.49 58.62 C117.63 58.51 114.76 58.41 111.9 58.32 C110.74 58.28 110.74 58.28 109.56 58.23 C100.09 57.92 90.62 57.76 81.15 57.59 C77.97 57.54 74.8 57.48 71.63 57.42 C62.91 57.26 54.2 57.1 45.48 56.95 C40.07 56.86 34.66 56.76 29.25 56.66 C27.2 56.62 25.16 56.58 23.12 56.55 C20.29 56.51 17.47 56.45 14.65 56.39 C13.81 56.38 12.97 56.37 12.11 56.36 C8.24 56.27 6.29 56.19 3 54 C1.62 48.11 1.96 42.15 2.06 36.12 C2.15 27.47 1.67 19.16 0.44 10.59 C0 7.02 -0.03 3.59 0 0 Z " fill="#FCEA2B" transform="translate(712,3)"/>
<path d="M0 0 C0.94 0.01 1.88 0.02 2.85 0.02 C5.98 0.05 9.12 0.09 12.25 0.12 C14.46 0.15 16.67 0.17 18.88 0.19 C23.54 0.23 28.21 0.28 32.87 0.33 C38.72 0.4 44.57 0.46 50.42 0.51 C76.53 0.76 102.64 1.16 128.74 1.87 C135.42 2.05 142.1 2.21 148.78 2.35 C149.72 2.37 150.67 2.39 151.64 2.41 C153.11 2.44 154.58 2.48 156.05 2.51 C158.9 3.29 160.1 4.79 161.97 7.04 C162.49 9.49 162.49 9.49 162.51 12.27 C162.53 13.31 162.55 14.35 162.57 15.42 C162.58 17.09 162.58 17.09 162.58 18.8 C162.59 19.95 162.61 21.1 162.63 22.28 C162.68 25.95 162.7 29.62 162.72 33.29 C162.75 35.77 162.78 38.26 162.81 40.75 C162.88 46.84 162.93 52.94 162.97 59.04 C117.52 59.25 72.1 59.26 26.66 58.17 C23.84 58.1 21.01 58.03 18.18 57.97 C13.76 57.86 9.34 57.75 4.91 57.64 C3.29 57.59 1.67 57.55 0.05 57.51 C-2.16 57.46 -4.36 57.4 -6.56 57.33 C-7.79 57.3 -9.03 57.27 -10.3 57.23 C-13.03 57.04 -13.03 57.04 -14.03 56.04 C-15.14 46.09 -15.25 36.04 -15.03 26.04 C-15.01 25.13 -15 24.22 -14.98 23.28 C-14.91 20.28 -14.82 17.29 -14.72 14.29 C-14.7 13.32 -14.67 12.36 -14.65 11.36 C-14.62 10.46 -14.58 9.55 -14.54 8.62 C-14.52 7.81 -14.49 6.99 -14.46 6.16 C-13.93 3.56 -13.08 2.68 -11.03 1.04 C-7.63 -0.66 -3.74 -0.05 0 0 Z " fill="#FCEA2B" transform="translate(827.031494140625,68.96240234375)"/>
<path d="M0 0 C17.11 14.09 37.25 23.1 58.19 29.94 C58.23 38.98 58.14 48.02 57.88 57.06 C57.84 58.87 57.84 58.87 57.81 60.71 C57.77 61.86 57.74 63.01 57.7 64.2 C57.67 65.23 57.65 66.26 57.62 67.32 C57.19 69.94 57.19 69.94 55.95 71.75 C47.58 77.37 28.19 74.18 18.5 74.19 C16.81 74.19 16.81 74.19 15.08 74.19 C-6.83 74.2 -28.58 73.09 -50.42 71.49 C-55.37 71.14 -60.31 70.86 -65.27 70.69 C-66.33 70.65 -67.39 70.61 -68.48 70.57 C-70.52 70.5 -72.57 70.44 -74.61 70.39 C-75.98 70.34 -75.98 70.34 -77.38 70.3 C-78.19 70.28 -79 70.25 -79.83 70.23 C-81.81 69.94 -81.81 69.94 -83.81 67.94 C-84.22 65.54 -84.22 65.54 -84.45 62.5 C-84.57 60.8 -84.57 60.8 -84.7 59.08 C-84.78 57.85 -84.86 56.63 -84.94 55.38 C-85.02 54.12 -85.1 52.87 -85.19 51.58 C-87.87 7.84 -87.87 7.84 -81.59 -3.22 C-79.81 -5.06 -79.81 -5.06 -77.38 -5.57 C-76.41 -5.58 -75.44 -5.59 -74.45 -5.59 C-73.35 -5.61 -72.25 -5.63 -71.12 -5.64 C-69.92 -5.64 -68.73 -5.64 -67.51 -5.64 C-65.66 -5.66 -65.66 -5.66 -63.78 -5.68 C-60.5 -5.71 -57.22 -5.73 -53.94 -5.74 C-49.36 -5.76 -44.78 -5.81 -40.2 -5.85 C-37.77 -5.87 -35.33 -5.89 -32.9 -5.9 C-26.08 -5.94 -19.44 -6.31 -12.67 -7.14 C-7.29 -6.99 -3.89 -3.38 0 0 Z " fill="#8967AA" transform="translate(1420.8125,484.0625)"/>
<path d="M0 0 C0.69 0 1.39 0.01 2.1 0.01 C11.13 0.05 20.13 0.3 29.12 1.06 C30.42 1.17 30.42 1.17 31.74 1.27 C36.86 1.79 40.87 2.98 45.5 5.25 C46.39 13.84 46.66 22.37 46.63 31 C46.63 33.05 46.63 35.1 46.64 37.14 C46.65 61.95 46.65 61.95 44.5 66.25 C12.82 66.25 -18.86 66.25 -51.5 66.25 C-51.5 70.54 -51.5 74.83 -51.5 79.25 C-56.84 79.3 -62.16 79.31 -67.5 79.25 C-68.58 79.24 -69.65 79.23 -70.76 79.22 C-74.28 79.17 -77.8 79.09 -81.31 79 C-83.04 78.98 -83.04 78.98 -84.8 78.96 C-85.88 78.92 -86.97 78.89 -88.08 78.86 C-89.05 78.84 -90.03 78.82 -91.03 78.8 C-93.5 78.25 -93.5 78.25 -95.31 76.52 C-96.67 73.93 -96.92 72.25 -97.01 69.34 C-97.05 68.36 -97.08 67.39 -97.12 66.38 C-97.14 65.33 -97.16 64.27 -97.19 63.19 C-97.23 61.54 -97.23 61.54 -97.28 59.86 C-97.37 56.32 -97.44 52.79 -97.5 49.25 C-97.53 48.07 -97.55 46.89 -97.58 45.68 C-98.35 10.56 -98.35 10.56 -91.5 3.25 C-89.28 2.74 -89.28 2.74 -86.64 2.74 C-85.65 2.72 -84.66 2.71 -83.64 2.7 C-82.03 2.7 -82.03 2.7 -80.39 2.71 C-79.27 2.7 -78.15 2.69 -76.99 2.68 C-73.39 2.64 -69.79 2.63 -66.19 2.62 C-61.5 2.6 -56.82 2.57 -52.14 2.52 C-50.98 2.51 -49.83 2.5 -48.63 2.49 C-40.4 2.38 -32.28 1.8 -24.09 0.96 C-16.03 0.15 -8.1 -0.06 0 0 Z " fill="#FCEA2B" transform="translate(200.5,64.75)"/>
<path d="M0 0 C14.21 0.55 28.41 0.92 42.62 1.19 C43.77 1.21 44.92 1.23 46.1 1.25 C80.21 1.87 114.33 1.72 148.44 1.62 C148.54 8.98 148.61 16.33 148.66 23.68 C148.68 26.18 148.7 28.68 148.74 31.18 C148.79 34.77 148.81 38.36 148.83 41.96 C148.85 43.08 148.87 44.2 148.89 45.36 C148.89 46.4 148.89 47.44 148.89 48.51 C148.9 49.43 148.91 50.35 148.92 51.29 C148.44 53.62 148.44 53.62 146.59 55.42 C143.66 57.06 141.51 56.95 138.17 56.88 C136.34 56.86 136.34 56.86 134.47 56.84 C133.2 56.81 131.93 56.78 130.62 56.75 C128.12 56.71 125.61 56.67 123.11 56.63 C121.44 56.6 121.44 56.6 119.74 56.56 C116.23 56.63 112.91 57.11 109.44 57.62 C105.69 57.8 101.94 57.76 98.19 57.75 C96.76 57.76 96.76 57.76 95.3 57.76 C89.88 57.75 84.5 57.59 79.1 57.27 C69.09 56.68 59.11 56.44 49.09 56.36 C46.37 56.34 43.65 56.32 40.93 56.29 C34.21 56.22 27.48 56.16 20.75 56.1 C15.01 56.05 9.28 55.99 3.55 55.93 C0.88 55.91 -1.78 55.89 -4.45 55.87 C-6.09 55.85 -7.72 55.83 -9.36 55.81 C-10.09 55.81 -10.82 55.81 -11.57 55.8 C-23.4 55.66 -23.4 55.66 -26.49 52.92 C-27.82 50.07 -27.87 48.1 -27.79 44.96 C-27.77 43.85 -27.75 42.73 -27.72 41.58 C-27.68 39.81 -27.68 39.81 -27.62 38 C-27.47 28.22 -27.8 18.79 -29.12 9.1 C-29.49 6.22 -29.65 3.52 -29.56 0.62 C-19.66 -0.32 -9.93 -0.39 0 0 Z " fill="#FCEA2B" transform="translate(183.5625,3.375)"/>
<path d="M0 0 C0.83 -0 1.66 -0 2.52 -0 C21.98 0.01 41.43 0.57 60.88 1.12 C61.65 1.15 62.42 1.17 63.21 1.19 C71.96 1.44 80.71 1.7 89.46 2 C93.7 2.14 97.94 2.26 102.18 2.37 C104.19 2.44 106.2 2.5 108.21 2.57 C109.55 2.59 109.55 2.59 110.92 2.62 C116.84 2.84 116.84 2.84 118.93 4.59 C121.68 7.91 121.35 10.45 121.3 14.69 C121.3 15.35 121.29 16.02 121.28 16.71 C121.26 18.92 121.23 21.13 121.2 23.34 C121.18 24.87 121.16 26.41 121.14 27.94 C121.1 31.16 121.06 34.38 121.01 37.6 C120.95 41.72 120.9 45.85 120.86 49.97 C120.82 53.14 120.78 56.31 120.73 59.49 C120.71 61.01 120.69 62.53 120.68 64.05 C120.66 66.18 120.62 68.3 120.58 70.43 C120.57 71.64 120.55 72.85 120.54 74.1 C120.26 77.08 119.93 78.74 118.25 81.19 C110.05 86.65 94.2 84.19 86.25 84.19 C85.92 65.71 85.59 47.23 85.25 28.19 C81.62 31.49 77.99 34.79 74.25 38.19 C71.77 40.21 69.32 42.17 66.75 44.06 C66.08 44.56 65.41 45.06 64.72 45.57 C46.63 58.78 26.89 70.43 5.94 78.44 C5.2 78.73 4.47 79.01 3.71 79.31 C-3.2 81.79 -10.73 82.39 -17.75 79.88 C-18.47 79.63 -19.19 79.39 -19.94 79.14 C-21.75 78.19 -21.75 78.19 -23.75 75.19 C-24.95 70.92 -24.9 66.65 -24.88 62.25 C-24.87 61.04 -24.87 61.04 -24.86 59.81 C-24.45 7.05 -24.45 7.05 -18.75 1.19 C-12.86 -0.78 -6.18 -0.01 0 0 Z " fill="#61B2E4" transform="translate(1591.75,558.8125)"/>
<path d="M0 0 C0.94 -0 1.88 -0 2.86 -0 C19.58 0.01 35.92 0.92 52.5 3.25 C53.51 3.39 54.52 3.53 55.55 3.67 C85 7.89 113.64 16.49 140.5 29.25 C140.55 33.49 140.59 37.72 140.61 41.96 C140.62 43.4 140.63 44.84 140.65 46.28 C140.68 48.35 140.69 50.42 140.7 52.49 C140.71 53.74 140.72 54.98 140.73 56.27 C140.5 59.25 140.5 59.25 138.5 61.25 C135.8 61.43 133.2 61.48 130.5 61.44 C129.8 61.44 129.1 61.44 128.38 61.44 C123.76 61.4 119.17 61.18 114.55 60.88 C104.32 60.25 94.13 60.13 83.87 60.19 C82.12 60.19 80.37 60.2 78.63 60.2 C74.95 60.21 71.28 60.22 67.6 60.23 C58.08 60.26 48.56 60.27 39.04 60.27 C38.1 60.27 37.17 60.27 36.2 60.27 C20.07 60.28 3.94 60.17 -12.19 59.88 C-13.2 59.86 -14.22 59.84 -15.26 59.83 C-18.03 59.78 -20.8 59.73 -23.57 59.66 C-24.37 59.65 -25.16 59.64 -25.97 59.63 C-31.27 59.48 -31.27 59.48 -33.5 57.25 C-35.84 46.14 -35.79 34.73 -35.71 23.44 C-35.69 20.76 -35.69 18.09 -35.69 15.42 C-35.68 13.72 -35.67 12.02 -35.67 10.32 C-35.67 9.52 -35.67 8.72 -35.66 7.9 C-35.62 2.37 -35.62 2.37 -34.5 1.25 C-23.1 -0.19 -11.47 0.01 0 0 Z " fill="#FCEA2B" transform="translate(1522.5,-0.25)"/>
<path d="M0 0 C1.9 0.07 3.79 0.15 5.69 0.22 C7.07 0.28 8.45 0.33 9.83 0.39 C18.43 0.74 27.03 1.02 35.62 1.32 C40.46 1.48 45.29 1.65 50.12 1.81 C52.08 1.88 54.04 1.95 56 2.02 C64 2.29 71.99 2.57 79.99 2.84 C81.4 2.89 81.4 2.89 82.83 2.94 C85.63 3.04 85.63 3.04 88.42 3.14 C89.76 3.18 89.76 3.18 91.12 3.23 C93.56 3.31 96 3.4 98.45 3.48 C99.48 3.52 99.48 3.52 100.54 3.55 C101.56 3.59 102.59 3.62 103.64 3.66 C102.95 7.24 102.07 10.63 100.94 14.1 C94.28 34.78 90.52 55.17 87.64 76.66 C80.36 77.53 73.16 77.85 65.82 77.9 C64.7 77.91 63.58 77.92 62.43 77.93 C58.79 77.95 55.15 77.96 51.52 77.97 C49.66 77.98 49.66 77.98 47.76 77.98 C31.3 78 15.02 77.53 -1.36 75.79 C-2.18 75.7 -3 75.61 -3.85 75.52 C-24.17 73.32 -24.17 73.32 -28.36 70.14 C-29.97 66.11 -29.51 62.23 -29.25 57.95 C-29.2 57 -29.15 56.04 -29.11 55.05 C-28.95 51.98 -28.78 48.92 -28.61 45.85 C-28.5 43.82 -28.4 41.8 -28.3 39.78 C-28.06 34.94 -27.79 30.11 -27.51 25.28 C-27.37 22.86 -27.24 20.44 -27.11 18.02 C-27.03 16.68 -26.95 15.33 -26.88 13.99 C-26.81 12.86 -26.75 11.73 -26.68 10.56 C-26.25 6.75 -25.22 3.99 -23.36 0.66 C-15.5 -0.26 -7.9 -0.35 0 0 Z " fill="#F4AA41" transform="translate(1264.35546875,234.33984375)"/>
<path d="M0 0 C10.58 -0.21 21.01 0.17 31.56 0.94 C32.76 1.02 33.96 1.11 35.2 1.2 C44.6 1.91 44.6 1.91 49.04 2.53 C69.77 5 90.81 3.81 111.59 2.88 C113.71 2.8 115.82 2.74 117.94 2.69 C119.02 2.65 120.1 2.61 121.21 2.57 C124.79 3.12 126.43 4.52 129 7 C134.1 17.19 129.57 36.05 128.62 47.25 C128.56 48.02 128.5 48.79 128.43 49.58 C128.25 51.81 128.05 54.04 127.85 56.27 C127.74 57.56 127.62 58.86 127.5 60.2 C126.06 71.11 126.06 71.11 122.95 73.71 C119.11 75.39 115.65 75.39 111.54 75.32 C110.69 75.32 109.85 75.32 108.99 75.32 C106.2 75.31 103.42 75.29 100.63 75.26 C98.68 75.25 96.72 75.24 94.77 75.24 C89.6 75.22 84.44 75.19 79.28 75.15 C71.08 75.09 62.88 75.05 54.68 75.02 C51.86 75.01 49.03 74.99 46.2 74.96 C33.11 74.88 20.07 75.32 7 76 C1.71 50.89 0.45 25.58 0 0 Z " fill="#EA5A47" transform="translate(1200,319)"/>
<path d="M0 0 C0.91 -0.01 1.82 -0.01 2.76 -0.02 C4.25 -0 4.25 -0 5.77 0.01 C6.83 0.01 7.89 0.01 8.98 0.01 C12.51 0.01 16.05 0.03 19.58 0.06 C22.05 0.07 24.53 0.08 27 0.09 C47.08 0.2 67.14 0.7 87.2 1.31 C88.28 1.34 88.28 1.34 89.38 1.38 C94.19 1.52 99 1.68 103.81 1.84 C105.62 1.9 105.62 1.9 107.46 1.95 C128.06 2.67 128.06 2.67 131.45 4.37 C131.48 4.96 131.5 5.55 131.53 6.16 C131.65 8.87 131.77 11.59 131.89 14.31 C131.93 15.24 131.97 16.16 132.01 17.12 C132.21 21.41 132.45 25.67 132.98 29.94 C133.55 34.76 133.6 39.53 133.58 44.37 C133.58 45.21 133.59 46.05 133.59 46.91 C133.59 48.16 133.59 48.16 133.59 49.43 C133.58 50.17 133.58 50.9 133.58 51.66 C133.46 54.14 133.23 56.57 132.94 59.04 C132.81 60.26 132.81 60.26 132.67 61.5 C132.6 62.12 132.53 62.74 132.45 63.37 C115.17 63.4 97.89 63.41 80.61 63.42 C72.58 63.43 64.56 63.44 56.53 63.45 C49.53 63.46 42.54 63.46 35.54 63.47 C31.84 63.47 28.13 63.47 24.43 63.48 C20.29 63.49 16.15 63.49 12 63.49 C10.18 63.49 10.18 63.49 8.33 63.5 C1.31 63.49 -5.58 63.15 -12.55 62.37 C-12.74 48.19 -12.74 34.08 -11.67 19.93 C-11.59 18.85 -11.52 17.76 -11.43 16.64 C-10.48 5.13 -10.48 5.13 -6.76 1.75 C-4.24 0.18 -2.94 -0 0 0 Z " fill="#EA5A47" transform="translate(905.54736328125,310.627685546875)"/>
<path d="M0 0 C1.42 2.84 1.14 5.26 1.15 8.44 C1.15 9.1 1.15 9.76 1.16 10.44 C1.16 12.63 1.17 14.81 1.17 17 C1.17 18.52 1.17 20.03 1.18 21.55 C1.18 24.73 1.19 27.91 1.19 31.09 C1.19 35.18 1.2 39.26 1.22 43.34 C1.23 46.47 1.23 49.61 1.23 52.74 C1.23 54.25 1.23 55.75 1.24 57.26 C1.25 59.36 1.25 61.46 1.24 63.56 C1.24 64.76 1.25 65.96 1.25 67.19 C1 70 1 70 -1 72 C-4.03 72.18 -6.97 72.23 -10 72.19 C-10.79 72.19 -11.59 72.19 -12.41 72.19 C-17.26 72.15 -22.09 71.94 -26.94 71.63 C-37.46 70.97 -47.93 70.89 -58.46 70.94 C-60.29 70.94 -62.12 70.95 -63.95 70.95 C-67.79 70.96 -71.63 70.97 -75.47 70.98 C-85.35 71.01 -95.24 71.01 -105.13 71.01 C-106.09 71.01 -107.06 71.01 -108.05 71.01 C-114.37 71.01 -120.68 71.01 -127 71 C-127.75 71 -128.49 71 -129.26 71 C-136.7 70.99 -144.15 70.96 -151.59 70.85 C-153.39 70.82 -155.19 70.81 -157 70.8 C-159.39 70.8 -161.78 70.76 -164.18 70.71 C-165.44 70.69 -166.71 70.68 -168.02 70.66 C-171 70 -171 70 -172.89 67.64 C-177.18 57.42 -175.11 42.95 -175 32 C-174.1 32.14 -173.19 32.29 -172.26 32.44 C-127.1 38.87 -80.65 30.94 -42 6 C-40.21 4.46 -38.43 2.9 -36.69 1.31 C-27.62 -5.77 -10.38 -3.36 0 0 Z " fill="#8967AA" transform="translate(1662,484)"/>
<path d="M0 0 C1.18 -0.02 2.36 -0.04 3.58 -0.06 C11.36 -0.1 18.76 0.61 26.46 1.75 C40.39 3.77 54.21 3.58 68.25 3.44 C77.02 3.38 85.78 3.31 94.81 3.25 C94.81 28.99 94.81 54.73 94.81 81.25 C64.81 81.25 64.81 81.25 53.88 79 C44.62 77.15 35.28 77.14 25.88 77.26 C23.43 77.28 20.99 77.29 18.54 77.31 C14.72 77.34 10.9 77.38 7.08 77.42 C3.37 77.46 -0.34 77.49 -4.05 77.51 C-5.77 77.54 -5.77 77.54 -7.52 77.56 C-8.58 77.57 -9.65 77.57 -10.75 77.57 C-12.14 77.59 -12.14 77.59 -13.57 77.6 C-16.74 77.18 -18.62 76.13 -21.19 74.25 C-26.37 60.22 -21.67 39.14 -20.38 24.56 C-20.29 23.59 -20.21 22.61 -20.12 21.6 C-19.88 18.79 -19.62 15.98 -19.36 13.18 C-19.28 12.32 -19.21 11.47 -19.14 10.58 C-19.06 9.79 -18.98 9 -18.9 8.19 C-18.83 7.5 -18.77 6.81 -18.7 6.1 C-18.05 3.75 -17.04 2.79 -15.19 1.25 C-10.78 -0.95 -4.83 0.02 0 0 Z " fill="#61B2E4" transform="translate(1016.1875,561.75)"/>
<path d="M0 0 C0.71 -0 1.43 -0 2.16 -0 C4.53 -0.01 6.9 0 9.27 0.01 C10.08 0.01 10.9 0.01 11.75 0.01 C29.66 0.05 47.55 0.47 65.45 1 C68.64 1.09 71.84 1.18 75.03 1.27 C92.34 1.74 109.65 2.3 126.94 3.13 C126.44 6.79 125.86 9.81 124.08 13.06 C123.7 13.76 123.31 14.47 122.91 15.19 C122.49 15.94 122.07 16.68 121.63 17.44 C121.19 18.23 120.75 19.01 120.29 19.81 C112.85 32.75 104.21 44.32 93.94 55.13 C92.79 56.48 91.65 57.83 90.51 59.19 C87.62 62.5 84.52 65.57 81.32 68.57 C80.42 69.41 79.52 70.26 78.59 71.13 C75.78 73.25 74.4 73.8 70.94 74.13 C69.88 74.24 68.82 74.34 67.73 74.45 C63.47 74.73 59.21 74.94 54.94 75.13 C54.2 75.17 53.45 75.21 52.68 75.25 C39.14 75.93 25.92 74.51 12.51 72.82 C11.64 72.71 10.78 72.6 9.88 72.49 C7.38 72.18 4.88 71.85 2.39 71.52 C1.27 71.38 1.27 71.38 0.12 71.23 C-5.49 70.44 -10.92 69.26 -15.06 65.13 C-16.14 61.99 -16.18 59.02 -16.19 55.72 C-16.19 54.66 -16.19 53.59 -16.19 52.5 C-16.19 51.37 -16.18 50.23 -16.18 49.07 C-16.18 47.91 -16.17 46.74 -16.17 45.54 C-15.95 7.79 -15.95 7.79 -11.67 2.38 C-8.08 -0.4 -4.35 0 0 0 Z " fill="#EA5A47" transform="translate(351.05517578125,309.869384765625)"/>
<path d="M0 0 C1.03 -0 2.05 -0 3.11 -0 C6.46 -0.01 9.81 0 13.16 0.01 C14.91 0.01 14.91 0.01 16.69 0.01 C32.25 0.02 47.79 0.24 63.35 0.7 C82.84 1.27 102.34 1.22 121.85 1.2 C122.68 1.19 123.5 1.19 124.36 1.19 C134.65 1.18 144.93 1.16 155.22 1.13 C156.06 6.98 156.4 12.66 156.43 18.56 C156.43 19.43 156.44 20.3 156.44 21.19 C156.45 23.02 156.46 24.84 156.46 26.66 C156.47 29.45 156.5 32.25 156.54 35.04 C156.54 36.82 156.55 38.59 156.55 40.37 C156.56 41.21 156.58 42.04 156.59 42.9 C156.57 48.69 156.57 48.69 154.89 50.86 C152.23 52.89 149.82 52.45 146.54 52.38 C145.36 52.37 144.18 52.35 142.96 52.34 C138.96 52.2 134.98 51.91 130.99 51.62 C122.39 51.06 113.82 51.02 105.2 51.07 C103.59 51.08 101.97 51.08 100.36 51.08 C96.95 51.09 93.54 51.1 90.13 51.12 C81.19 51.15 72.25 51.15 63.31 51.15 C62.42 51.15 61.52 51.15 60.6 51.15 C44.46 51.15 28.32 51.12 12.17 50.93 C9.67 50.9 7.17 50.88 4.67 50.86 C1.24 50.84 -2.18 50.8 -5.61 50.74 C-6.61 50.74 -7.61 50.74 -8.64 50.74 C-9.54 50.72 -10.45 50.7 -11.38 50.68 C-12.16 50.67 -12.95 50.66 -13.75 50.65 C-15.78 50.13 -15.78 50.13 -17.52 48.29 C-19.22 45.38 -19.31 43.03 -19.51 39.67 C-19.63 37.76 -19.63 37.76 -19.75 35.8 C-19.79 35.13 -19.82 34.47 -19.86 33.78 C-19.96 31.8 -20.09 29.82 -20.21 27.83 C-20.72 19.3 -21.19 10.68 -20.78 2.13 C-17.07 -1.58 -5.05 -0.01 0 0 Z " fill="#F4AA41" transform="translate(832.77734375,255.8671875)"/>
<path d="M0 0 C1.02 -0 2.05 -0.01 3.11 -0.01 C9.65 -0 16.16 0.18 22.7 0.46 C41.43 1.27 60.16 1.45 78.91 1.66 C83.5 1.71 88.09 1.76 92.69 1.82 C101.62 1.92 110.56 2.03 119.5 2.12 C119.55 9.78 119.59 17.43 119.61 25.09 C119.62 27.69 119.63 30.3 119.65 32.9 C119.68 36.64 119.69 40.38 119.7 44.12 C119.71 45.29 119.72 46.46 119.73 47.67 C119.73 48.75 119.73 49.83 119.73 50.94 C119.73 51.9 119.74 52.85 119.74 53.83 C119.5 56.13 119.5 56.13 117.5 58.12 C115.32 58.52 115.32 58.52 112.63 58.71 C111.14 58.82 111.14 58.82 109.63 58.93 C104.55 59.24 99.48 59.51 94.41 59.73 C93.27 59.78 92.14 59.83 90.97 59.88 C65.67 60.93 40.72 61.61 15.5 59.12 C14.73 59.05 13.95 58.98 13.15 58.9 C7.43 58.34 1.71 57.75 -4 57.12 C-5.15 57 -5.15 57 -6.33 56.87 C-8.48 56.63 -10.63 56.38 -12.78 56.12 C-14.01 55.98 -15.24 55.84 -16.5 55.69 C-19.5 55.12 -19.5 55.12 -22.5 53.12 C-23.44 50.32 -23.63 48.62 -23.63 45.72 C-23.63 44.83 -23.64 43.94 -23.64 43.03 C-23.64 42.07 -23.63 41.11 -23.63 40.13 C-23.63 39.14 -23.63 38.16 -23.64 37.14 C-23.64 35.06 -23.63 32.98 -23.63 30.89 C-23.63 27.7 -23.63 24.51 -23.64 21.33 C-23.64 19.3 -23.63 17.28 -23.63 15.25 C-23.63 14.3 -23.64 13.35 -23.64 12.36 C-23.64 11.47 -23.63 10.58 -23.63 9.66 C-23.63 8.88 -23.63 8.1 -23.63 7.29 C-23.5 5.12 -23.1 3.21 -22.5 1.12 C-14.98 0.2 -7.57 -0.03 0 0 Z " fill="#FCEA2B" transform="translate(26.5,1.875)"/>
<path d="M0 0 C8.54 -0.02 17.08 -0.04 25.62 -0.05 C29.59 -0.06 33.56 -0.06 37.53 -0.08 C53.96 -0.12 70.38 -0.09 86.81 0.32 C88.3 0.36 89.8 0.39 91.29 0.43 C93.35 0.47 95.42 0.53 97.48 0.59 C98.64 0.62 99.81 0.65 101.01 0.68 C103.89 0.99 105.61 1.41 108 3 C109.42 5.84 109.14 8.26 109.15 11.44 C109.15 12.1 109.15 12.76 109.16 13.44 C109.16 15.63 109.17 17.81 109.17 20 C109.17 21.52 109.17 23.03 109.18 24.55 C109.18 27.73 109.19 30.91 109.19 34.09 C109.19 38.18 109.2 42.26 109.22 46.34 C109.23 49.47 109.23 52.61 109.23 55.74 C109.23 57.25 109.23 58.75 109.24 60.26 C109.25 62.36 109.25 64.46 109.24 66.56 C109.24 67.76 109.25 68.96 109.25 70.19 C109 73 109 73 107 75 C104.46 75.18 102.04 75.23 99.5 75.19 C98.85 75.19 98.2 75.19 97.53 75.19 C93.02 75.15 88.53 74.92 84.03 74.63 C74.1 74.02 64.22 73.87 54.27 73.9 C52.66 73.9 51.05 73.91 49.44 73.91 C45.27 73.91 41.1 73.92 36.92 73.93 C32.64 73.94 28.35 73.95 24.07 73.95 C15.71 73.96 7.36 73.98 -1 74 C-1.02 65.53 -1.04 57.07 -1.05 48.6 C-1.06 44.67 -1.06 40.73 -1.08 36.8 C-1.09 33 -1.09 29.2 -1.09 25.4 C-1.1 23.96 -1.1 22.51 -1.11 21.07 C-1.13 13.98 -1.14 7.02 0 0 Z " fill="#EA5A47" transform="translate(1554,320)"/>
<path d="M0 0 C2.27 0.1 4.54 0.19 6.82 0.29 C12.25 0.52 17.69 0.76 23.12 1 C23.23 7.74 23.3 14.49 23.34 21.23 C23.36 23.53 23.39 25.82 23.43 28.11 C23.48 31.41 23.5 34.71 23.52 38.01 C23.54 39.04 23.56 40.06 23.58 41.12 C23.58 48.25 23.58 48.25 21.23 52.12 C17.9 55.09 15.87 55.16 11.48 55.3 C9.7 55.36 9.7 55.36 7.88 55.42 C6.59 55.46 5.29 55.5 3.95 55.54 C2.59 55.58 1.22 55.62 -0.14 55.67 C-3.02 55.76 -5.9 55.84 -8.78 55.93 C-12.37 56.04 -15.97 56.15 -19.57 56.27 C-73.5 58.02 -73.5 58.02 -93.97 55.03 C-96.39 54.68 -98.82 54.36 -101.26 54.04 C-102.84 53.82 -104.42 53.61 -106 53.39 C-107.06 53.25 -107.06 53.25 -108.15 53.1 C-112.54 52.44 -116.07 51.3 -119.88 49 C-122.85 43.65 -122.13 37.21 -122.06 31.25 C-122.06 30.24 -122.06 29.22 -122.06 28.18 C-122.01 18.77 -121.45 9.39 -120.88 0 C-113.05 -0.13 -105.22 -0.26 -97.4 -0.39 C-93.76 -0.45 -90.12 -0.51 -86.48 -0.57 C-57.63 -1.07 -28.84 -1.29 0 0 Z " fill="#FCEA2B" transform="translate(1014.875,5)"/>
<path d="M0 0 C0.84 0.02 1.68 0.03 2.54 0.05 C3.89 0.09 3.89 0.09 5.28 0.12 C6.68 0.16 6.68 0.16 8.11 0.19 C10.08 0.23 12.06 0.28 14.04 0.33 C17.05 0.41 20.06 0.48 23.07 0.55 C24.99 0.59 26.92 0.64 28.84 0.69 C30.18 0.72 30.18 0.72 31.55 0.75 C44.9 1.11 44.9 1.11 46.82 3.04 C46.93 5.46 46.97 7.86 46.97 10.28 C46.97 11.04 46.98 11.79 46.98 12.58 C46.99 15.09 46.99 17.61 46.99 20.13 C46.99 21.87 47 23.61 47 25.36 C47.01 29.01 47.01 32.67 47.01 36.33 C47.01 41.02 47.02 45.72 47.04 50.42 C47.05 54.02 47.05 57.62 47.05 61.22 C47.05 62.95 47.06 64.68 47.07 66.41 C47.08 68.83 47.07 71.25 47.07 73.67 C47.07 74.39 47.08 75.11 47.08 75.85 C47.05 80.81 47.05 80.81 44.82 83.04 C41.89 83.45 41.89 83.45 38.04 83.67 C37.33 83.71 36.62 83.75 35.9 83.8 C33.52 83.93 31.14 84.05 28.76 84.16 C27.93 84.2 27.11 84.25 26.26 84.29 C-53.43 88.18 -53.43 88.18 -79.18 81.04 C-74.97 69.47 -65.88 59.49 -58.18 50.04 C-57.73 49.48 -57.28 48.93 -56.82 48.36 C-44.82 33.62 -31.33 19.54 -16.18 8.04 C-15.33 7.36 -14.49 6.69 -13.62 5.99 C-5.95 -0.14 -5.95 -0.14 0 0 Z " fill="#FCEA2B" transform="translate(1331.1767578125,64.96240234375)"/>
<path d="M0 0 C1.25 0.05 2.5 0.11 3.79 0.16 C30.75 1.42 30.75 1.42 35.44 5.75 C36.04 7.66 36.04 7.66 36.18 9.93 C36.24 10.82 36.29 11.7 36.35 12.62 C36.53 19.04 36.54 25.45 36.5 31.88 C36.49 33.32 36.49 34.77 36.49 36.22 C36.48 39.73 36.46 43.24 36.44 46.75 C21.02 45.95 21.02 45.95 14.62 45.24 C-2.77 43.3 -20.3 42.97 -37.75 44.25 C-45.67 44.83 -53.62 44.75 -61.56 44.75 C-61.56 56.3 -61.56 67.85 -61.56 79.75 C-69.76 79.48 -77.96 79.2 -86.16 78.88 C-88.92 78.77 -91.68 78.69 -94.43 78.6 C-96.26 78.52 -96.26 78.52 -98.12 78.44 C-99.14 78.4 -100.15 78.36 -101.19 78.32 C-103.56 77.75 -103.56 77.75 -105.18 76.02 C-106.77 73.41 -106.98 71.88 -107.07 68.84 C-107.11 67.86 -107.15 66.89 -107.18 65.88 C-107.2 64.83 -107.23 63.77 -107.25 62.69 C-107.3 61.04 -107.3 61.04 -107.34 59.36 C-107.44 55.82 -107.5 52.29 -107.56 48.75 C-107.59 47.57 -107.62 46.39 -107.65 45.18 C-108.38 11.48 -108.38 11.48 -102.84 4.61 C-100.04 2.32 -98.69 2.25 -95.1 2.24 C-93.46 2.22 -93.46 2.22 -91.78 2.2 C-90.59 2.2 -89.4 2.21 -88.18 2.21 C-86.94 2.2 -85.7 2.19 -84.42 2.18 C-81.09 2.15 -77.77 2.13 -74.45 2.13 C-68.59 2.12 -62.73 2.07 -56.87 2.02 C-55.58 2.01 -54.3 2 -52.98 1.99 C-43.39 1.88 -33.91 1.25 -24.36 0.43 C-16.17 -0.26 -8.21 -0.41 0 0 Z " fill="#EA5A47" transform="translate(210.5625,388.25)"/>
<path d="M0 0 C19 -0.11 37.99 -0.11 56.99 0.32 C58.7 0.36 60.41 0.39 62.12 0.42 C64.52 0.47 66.92 0.52 69.32 0.59 C70.38 0.6 70.38 0.6 71.46 0.62 C76.54 0.77 80.34 1.34 84 5 C84.25 7.81 84.25 7.81 84.26 11.44 C84.26 12.43 84.26 12.43 84.27 13.44 C84.28 15.63 84.27 17.81 84.27 20 C84.27 21.52 84.27 23.03 84.27 24.55 C84.27 27.73 84.27 30.91 84.26 34.09 C84.25 38.18 84.26 42.26 84.27 46.34 C84.28 49.47 84.27 52.61 84.27 55.74 C84.27 57.25 84.27 58.75 84.27 60.26 C84.28 62.36 84.27 64.46 84.26 66.56 C84.26 67.76 84.26 68.96 84.25 70.19 C84 73 84 73 82 75 C80.15 75.24 80.15 75.24 77.88 75.23 C76.6 75.23 76.6 75.23 75.29 75.22 C74.39 75.21 73.49 75.2 72.56 75.19 C71.73 75.19 70.9 75.19 70.04 75.19 C64.93 75.15 59.85 74.94 54.75 74.63 C44.45 74.02 34.19 73.88 23.88 73.92 C21.02 73.94 18.17 73.94 15.31 73.95 C9.27 73.96 3.23 73.98 -2.81 74 C-9.87 74.02 -16.92 74.04 -23.98 74.06 C-26.78 74.06 -29.59 74.07 -32.39 74.09 C-34.11 74.09 -35.83 74.09 -37.54 74.1 C-38.7 74.11 -38.7 74.11 -39.88 74.11 C-44.03 74.11 -47.93 73.81 -52 73 C-49.58 71.38 -47.65 70.39 -45 69.31 C-25.85 60.86 -14.02 45.76 -6.28 26.73 C-3.3 18.04 -1.48 9.06 0 0 Z " fill="#F4AA41" transform="translate(347,232)"/>
<path d="M0 0 C1.13 0.11 1.13 0.11 2.27 0.22 C10.54 0.95 18.71 1.07 27 0.92 C30.81 0.86 34.62 0.83 38.43 0.79 C43.24 0.75 48.05 0.69 52.86 0.6 C56.78 0.53 60.71 0.49 64.63 0.47 C66.12 0.46 67.6 0.43 69.09 0.4 C80.58 0.13 80.58 0.13 84.02 2.24 C87.46 6.12 87.7 10.26 87.5 15.19 C87.48 16.01 87.47 16.84 87.45 17.69 C87.17 26.91 86.38 36.12 85.62 45.31 C85.53 46.47 85.53 46.47 85.43 47.65 C85.25 49.89 85.05 52.13 84.85 54.36 C84.74 55.67 84.62 56.97 84.5 58.31 C83.08 68.77 83.08 68.77 79 72 C75.99 72.3 73.18 72.43 70.16 72.42 C69.26 72.43 68.35 72.43 67.42 72.44 C64.42 72.47 61.42 72.47 58.42 72.48 C56.33 72.49 54.23 72.51 52.14 72.52 C46.62 72.57 41.1 72.59 35.57 72.61 C26.77 72.65 17.97 72.71 9.17 72.77 C6.11 72.79 3.05 72.8 -0.01 72.81 C-10.05 72.86 -19.99 73.08 -30 74 C-29.47 66.59 -27.2 60.08 -24.69 53.12 C-24.03 51.29 -24.03 51.29 -23.36 49.43 C-20.2 40.79 -16.66 32.36 -12.81 24 C-12.1 22.46 -12.1 22.46 -11.38 20.88 C-7.97 13.68 -4.09 6.83 0 0 Z " fill="#F4AA41" transform="translate(1243,159)"/>
<path d="M0 0 C10.4 0.99 10.4 0.99 21 2 C26.09 2.09 31.13 2.17 36.22 2.09 C38.5 2.05 40.78 2.03 43.06 2.02 C49.52 1.97 55.98 1.9 62.44 1.81 C66.44 1.75 70.44 1.72 74.44 1.7 C75.95 1.69 77.46 1.67 78.96 1.64 C81.06 1.6 83.15 1.59 85.25 1.58 C86.43 1.56 87.62 1.55 88.84 1.53 C92.67 2.1 94.3 3.27 97 6 C101.1 18.29 97.39 35.25 96.27 47.87 C96.02 50.76 95.79 53.64 95.56 56.53 C95.42 58.15 95.27 59.76 95.12 61.38 C95.07 62.1 95.02 62.82 94.96 63.57 C94.63 66.86 94.17 68.78 92.12 71.41 C87.91 74.57 83.69 74.1 78.67 74.02 C77.4 74.01 77.4 74.01 76.1 73.99 C73.29 73.96 70.48 73.92 67.68 73.88 C65.73 73.85 63.78 73.83 61.84 73.81 C56.71 73.74 51.59 73.68 46.46 73.61 C40.32 73.52 34.17 73.45 28.02 73.37 C18.68 73.25 9.34 73.13 0 73 C0 48.91 0 24.82 0 0 Z " fill="#FCEA2B" transform="translate(0,70)"/>
<path d="M0 0 C0 27.06 0 54.12 0 82 C-26.48 82 -26.48 82 -34.77 81.6 C-35.72 81.56 -36.66 81.51 -37.64 81.47 C-39.58 81.38 -41.52 81.29 -43.47 81.2 C-46.42 81.06 -49.38 80.93 -52.34 80.8 C-54.25 80.71 -56.17 80.62 -58.09 80.54 C-58.95 80.5 -59.82 80.46 -60.71 80.42 C-64.78 80.22 -68.84 79.97 -72.9 79.6 C-73.61 79.53 -74.32 79.47 -75.04 79.4 C-78.85 78.62 -80.45 76.93 -83 74 C-85.67 66.55 -85.11 59.1 -84.83 51.29 C-84.78 49.87 -84.74 48.45 -84.7 47.03 C-84.61 44.08 -84.51 41.12 -84.41 38.16 C-84.27 34.37 -84.16 30.58 -84.05 26.78 C-83.96 23.86 -83.87 20.94 -83.77 18.02 C-83.73 16.62 -83.68 15.22 -83.64 13.82 C-83.59 11.87 -83.51 9.92 -83.44 7.98 C-83.41 6.87 -83.37 5.76 -83.33 4.62 C-83 2 -83 2 -81 0 C-78.47 -0.41 -78.47 -0.41 -75.28 -0.63 C-74.1 -0.72 -72.92 -0.8 -71.7 -0.89 C-70.46 -0.97 -69.22 -1.04 -67.94 -1.12 C-66.75 -1.21 -65.57 -1.3 -64.35 -1.39 C-42.76 -2.85 -21.64 -1.2 0 0 Z " fill="#61B2E4" transform="translate(1802,563)"/>
<path d="M0 0 C17.82 1.49 17.82 1.49 36 3 C42.39 3.15 48.64 3.26 55 3 C55.92 2.96 56.83 2.93 57.77 2.89 C62.73 2.68 67.68 2.46 72.64 2.24 C73.55 2.2 74.47 2.16 75.41 2.12 C77.04 2.04 78.67 1.97 80.3 1.89 C82.24 1.8 84.18 1.74 86.12 1.69 C87.16 1.65 88.19 1.61 89.26 1.57 C92.83 2.13 94.46 3.49 97 6 C98.19 9.57 98.17 12.82 98.15 16.53 C98.15 17.66 98.15 17.66 98.14 18.8 C98.07 26.62 97.51 34.38 96.83 42.17 C96.62 44.53 96.43 46.88 96.24 49.24 C94.91 65.33 94.91 65.33 93 71 C88.8 74.53 84.59 74.38 79.35 74.25 C78.5 74.24 77.64 74.23 76.75 74.22 C73.92 74.19 71.09 74.13 68.26 74.07 C66.3 74.05 64.33 74.02 62.36 73.99 C57.2 73.92 52.03 73.83 46.86 73.74 C40.66 73.64 34.46 73.55 28.25 73.46 C18.84 73.33 9.42 73.16 0 73 C0 48.91 0 24.82 0 0 Z " fill="#61B2E4" transform="translate(0,565)"/>
<path d="M0 0 C11.2 0 11.2 0 15.13 0.44 C16.44 0.57 16.44 0.57 17.78 0.71 C18.7 0.81 19.62 0.9 20.56 1 C35.97 2.44 51.29 2.29 66.74 1.66 C68.25 1.61 69.76 1.55 71.27 1.49 C74.21 1.38 77.15 1.24 80.1 1.09 C81.46 1.04 82.81 0.98 84.17 0.93 C85.97 0.84 85.97 0.84 87.8 0.75 C91.43 1.03 93.16 1.75 96 4 C98.75 7.56 98.28 11.79 98.21 16.09 C98.2 16.88 98.2 17.67 98.19 18.49 C98.08 26.45 97.53 34.37 96.83 42.3 C96.62 44.66 96.43 47.02 96.24 49.38 C96.11 50.91 95.98 52.44 95.85 53.98 C95.8 54.67 95.74 55.36 95.68 56.07 C94.57 68.41 94.57 68.41 91.05 71.99 C86.44 73.52 82.08 73.33 77.25 73.22 C76.17 73.21 75.08 73.19 73.96 73.18 C70.3 73.13 66.65 73.07 63 73 C60.35 72.96 57.7 72.93 55.05 72.89 C46.68 72.78 38.31 72.64 29.94 72.5 C20.06 72.33 10.18 72.17 0 72 C0 48.24 0 24.48 0 0 Z " fill="#F4AA41" transform="translate(0,233)"/>
<path d="M0 0 C9.66 0 9.66 0 14.72 0.71 C24.97 2.12 35.23 2.2 45.56 2.19 C46.34 2.19 47.12 2.19 47.92 2.18 C59.31 2.15 70.68 1.88 82.06 1.09 C87.49 0.78 91.4 0.65 96 4 C102.59 12.49 97.49 33.71 96.62 44.06 C96.56 44.83 96.5 45.6 96.43 46.39 C94.62 68.2 94.62 68.2 91.47 71.71 C87.85 73.6 84.36 73.39 80.38 73.34 C79.51 73.34 78.64 73.34 77.74 73.34 C74.88 73.34 72.01 73.32 69.14 73.29 C67.15 73.29 65.16 73.28 63.17 73.28 C57.94 73.27 52.7 73.24 47.47 73.21 C41.19 73.17 34.9 73.16 28.62 73.14 C19.08 73.11 9.54 73.05 0 73 C0 48.91 0 24.82 0 0 Z " fill="#EA5A47" transform="translate(0,394)"/>
<path d="M0 0 C1.35 0.03 1.35 0.03 2.72 0.06 C5.69 0.12 8.65 0.2 11.62 0.27 C13.67 0.32 15.73 0.36 17.79 0.41 C23.2 0.53 28.61 0.66 34.02 0.79 C40.52 0.94 47.01 1.09 53.51 1.24 C63.37 1.46 73.24 1.7 83.1 1.93 C83.1 25.03 83.1 48.13 83.1 71.93 C65.02 71.72 65.02 71.72 57.22 71.62 C51.93 71.56 46.64 71.49 41.35 71.43 C37.08 71.38 32.81 71.33 28.53 71.28 C26.92 71.26 25.3 71.24 23.68 71.22 C18.49 71.16 13.29 71.07 8.1 70.93 C7.35 70.91 6.59 70.9 5.82 70.88 C3.6 70.83 1.38 70.75 -0.83 70.66 C-2.12 70.62 -3.41 70.57 -4.74 70.53 C-7.9 69.93 -7.9 69.93 -9.82 68.06 C-11.28 65.17 -11.21 62.99 -11.12 59.76 C-11.09 57.94 -11.09 57.94 -11.06 56.08 C-11.01 54.15 -11.01 54.15 -10.96 52.18 C-10.83 42.84 -11.02 34.03 -12.45 24.8 C-13.36 16.89 -13.05 8.89 -12.9 0.93 C-8.59 -0.29 -4.44 -0.12 0 0 Z " fill="#F4AA41" transform="translate(724.8994140625,151.070068359375)"/>
<path d="M0 0 C66.4 -0.19 66.4 -0.19 86.66 0.26 C88.12 0.3 89.59 0.32 91.06 0.35 C93.04 0.38 95.01 0.43 96.99 0.49 C98.05 0.51 99.1 0.54 100.19 0.57 C103.72 1.11 106.45 2.45 109 5 C109.1 7.11 109.14 9.22 109.15 11.32 C109.15 11.98 109.15 12.64 109.16 13.32 C109.16 15.52 109.17 17.71 109.17 19.9 C109.17 21.42 109.17 22.94 109.18 24.46 C109.18 27.64 109.19 30.83 109.19 34.02 C109.19 38.11 109.2 42.2 109.22 46.29 C109.23 49.43 109.23 52.56 109.23 55.7 C109.23 57.21 109.23 58.72 109.24 60.23 C109.25 62.33 109.25 64.44 109.24 66.55 C109.24 67.75 109.25 68.95 109.25 70.18 C109 73 109 73 107 75 C104.24 75.15 101.58 75.18 98.82 75.12 C97.08 75.1 95.34 75.08 93.61 75.06 C92.69 75.05 91.77 75.04 90.83 75.02 C88.01 75 85.2 75.02 82.38 75.06 C77.55 75.13 72.72 75.1 67.89 75.02 C65.91 75.01 63.92 75.02 61.94 75.06 C45.93 75.36 45.93 75.36 41.21 71.56 C38.01 67.83 35.96 63.6 33.98 59.13 C32.5 55.92 30.68 52.99 28.83 49.97 C27.83 48.26 26.83 46.54 25.83 44.82 C24.04 41.73 22.23 38.63 20.43 35.54 C20.06 34.92 19.7 34.29 19.32 33.65 C16.78 29.31 14.2 24.98 11.61 20.68 C11.26 20.1 10.91 19.52 10.55 18.92 C8.89 16.17 7.23 13.42 5.56 10.68 C4.97 9.71 4.39 8.74 3.78 7.74 C3.27 6.9 2.75 6.05 2.22 5.18 C1 3 1 3 0 0 Z " fill="#61B2E4" transform="translate(322,565)"/>
<path d="M0 0 C1.98 -0.01 3.95 -0.04 5.93 -0.07 C13.86 -0.1 21.39 0.54 29.23 1.74 C41.38 3.58 53.34 3.58 65.61 3.43 C72.91 3.37 80.22 3.3 87.74 3.24 C87.74 22.71 87.74 42.18 87.74 62.24 C64.37 63.41 64.37 63.41 56.43 63.37 C55.46 63.36 54.5 63.36 53.51 63.36 C46.27 63.31 39.05 63.03 31.82 62.67 C20.82 62.14 9.81 61.92 -1.2 61.68 C-2.19 61.66 -3.18 61.63 -4.2 61.61 C-9.89 61.48 -15.57 61.36 -21.26 61.24 C-21.56 49.84 -20.77 38.67 -19.66 27.33 C-19.38 24.45 -19.12 21.58 -18.86 18.7 C-18.69 16.87 -18.51 15.03 -18.33 13.19 C-18.26 12.34 -18.18 11.48 -18.1 10.6 C-18.02 9.81 -17.94 9.01 -17.86 8.2 C-17.79 7.5 -17.72 6.81 -17.65 6.09 C-17.26 4.24 -17.26 4.24 -15.26 1.24 C-10.31 -0.41 -5.18 0.01 0 0 Z " fill="#FCEA2B" transform="translate(1015.262451171875,66.759765625)"/>
<path d="M0 0 C0 23.43 0 46.86 0 71 C-38.86 71 -38.86 71 -52.14 70.31 C-54.66 70.18 -57.17 70.08 -59.69 69.97 C-61.34 69.89 -62.98 69.81 -64.63 69.73 C-65.36 69.7 -66.09 69.67 -66.84 69.64 C-72.62 69.31 -78.64 68.27 -82.95 64.12 C-86.76 56.41 -84.75 46.8 -83.77 38.58 C-82.74 29.19 -82.87 19.82 -82.99 10.39 C-83 9.18 -83.01 7.98 -83.03 6.74 C-83.05 5.66 -83.06 4.57 -83.08 3.46 C-83 1 -83 1 -82 0 C-54.72 -3.83 -27.36 -1.66 0 0 Z " fill="#EA5A47" transform="translate(1802,402)"/>
<path d="M0 0 C0.9 0.05 1.79 0.1 2.72 0.15 C7.15 0.39 11.57 0.67 16 1 C16.12 5.59 16.21 10.18 16.27 14.77 C16.3 16.33 16.33 17.89 16.38 19.45 C16.44 21.7 16.47 23.95 16.49 26.2 C16.51 26.89 16.54 27.58 16.57 28.29 C16.57 32.46 15.85 35.79 12.9 38.87 C8.45 41.51 2.92 40.97 -2.11 41.02 C-3.41 41.06 -4.71 41.1 -6.06 41.13 C-9.56 41.23 -13.07 41.29 -16.58 41.34 C-20.21 41.4 -23.84 41.48 -27.47 41.57 C-33.14 41.69 -38.82 41.79 -44.49 41.88 C-49.67 41.96 -54.85 42.07 -60.03 42.22 C-75.11 42.66 -89.75 41.73 -104.69 39.69 C-105.47 39.58 -106.25 39.47 -107.06 39.36 C-109.28 39.05 -111.49 38.73 -113.7 38.39 C-114.97 38.19 -116.23 38 -117.54 37.8 C-121.11 36.97 -123.87 35.91 -127 34 C-129.64 28.21 -129.27 22.14 -129.19 15.88 C-129.19 14.9 -129.19 13.92 -129.19 12.92 C-129.16 8.44 -128.92 4.39 -128 0 C-115.59 -0.16 -103.19 -0.3 -90.78 -0.44 C-85.01 -0.51 -79.25 -0.58 -73.49 -0.65 C-23.31 -1.28 -23.31 -1.28 0 0 Z " fill="#8967AA" transform="translate(1022,515)"/>
<path d="M0 0 C1.3 0 1.3 0 2.62 0 C12.07 0.08 22.66 0.18 31.69 3.19 C33.11 5.16 33.11 5.16 34.59 7.76 C35.14 8.73 35.7 9.69 36.27 10.69 C37.16 12.27 37.16 12.27 38.06 13.88 C39.33 16.09 40.61 18.31 41.88 20.53 C42.84 22.22 42.84 22.22 43.82 23.93 C46.5 28.61 49.25 33.24 52 37.88 C53.05 39.66 54.11 41.44 55.16 43.22 C57.07 46.45 58.98 49.68 60.89 52.91 C62.86 56.22 64.82 59.53 66.77 62.85 C67.54 64.15 68.32 65.45 69.09 66.75 C70.17 68.57 71.25 70.4 72.33 72.23 C72.95 73.28 73.58 74.33 74.22 75.42 C75.46 77.75 76.23 79.61 76.69 82.19 C59.55 80.38 59.55 80.38 51.94 79.12 C41.03 77.41 30.28 77.12 19.27 77.2 C17.6 77.21 17.6 77.21 15.9 77.22 C11.24 77.26 6.59 77.3 1.93 77.36 C-1.5 77.4 -4.93 77.42 -8.36 77.45 C-9.41 77.46 -10.47 77.48 -11.56 77.5 C-12.53 77.51 -13.51 77.51 -14.51 77.51 C-15.37 77.52 -16.23 77.53 -17.11 77.54 C-19.81 77.11 -20.66 76.32 -22.31 74.19 C-27.29 59.8 -22.83 39.31 -21.5 24.44 C-21.42 23.46 -21.33 22.49 -21.25 21.48 C-21.01 18.68 -20.75 15.88 -20.48 13.08 C-20.37 11.8 -20.37 11.8 -20.26 10.5 C-19.67 4.64 -19.67 4.64 -17.96 2.48 C-13.46 -1.05 -5.54 -0 0 0 Z " fill="#61B2E4" transform="translate(459.3125,560.8125)"/>
<path d="M0 0 C0.1 13.24 0.14 26.46 -0.44 39.69 C-0.48 40.61 -0.52 41.53 -0.56 42.49 C-0.81 47.7 -1.11 52.86 -2 58 C-12.19 63.09 -30.55 60.2 -41.69 60.19 C-43.26 60.19 -43.26 60.19 -44.86 60.19 C-57.65 60.18 -70.32 59.97 -83.06 58.86 C-95.11 57.82 -107.17 57.37 -119.25 56.88 C-120.33 56.83 -121.41 56.79 -122.52 56.74 C-128.68 56.49 -134.84 56.24 -141 56 C-140.41 52.79 -140.16 52.14 -137.54 49.91 C-136.39 49.13 -135.23 48.37 -134.06 47.62 C-133.41 47.2 -132.76 46.78 -132.09 46.34 C-95.77 23.3 -44.21 -1.7 0 0 Z " fill="#FCEA2B" transform="translate(1479,3)"/>
<path d="M0 0 C0.83 -0.01 1.66 -0.01 2.52 -0.02 C3.88 -0.01 3.88 -0.01 5.28 -0.01 C6.25 -0.01 7.22 -0.01 8.22 -0.01 C11.48 -0.02 14.74 -0.01 18 0.01 C19.12 0.01 20.24 0.01 21.4 0.02 C42.02 0.06 62.63 0.56 83.25 1.2 C83.96 1.22 84.67 1.24 85.41 1.26 C90.23 1.41 95.04 1.56 99.86 1.72 C101.06 1.76 102.26 1.8 103.5 1.84 C127.61 2.67 127.61 2.67 132.93 4.26 C132.93 4.82 132.92 5.38 132.92 5.95 C132.9 8.53 132.88 11.11 132.87 13.7 C132.86 14.57 132.85 15.45 132.85 16.36 C132.83 20.53 132.91 24.6 133.43 28.74 C134.07 33.87 134.08 38.96 134.06 44.13 C134.05 45.1 134.05 46.07 134.05 47.07 C133.89 66.71 133.89 66.71 129.93 71.26 C126.65 73.33 123.99 73.53 120.16 73.58 C118.99 73.6 117.83 73.62 116.64 73.64 C114.77 73.66 114.77 73.66 112.86 73.67 C111.57 73.69 110.29 73.71 108.97 73.73 C105.57 73.78 102.17 73.82 98.77 73.86 C95.3 73.9 91.83 73.95 88.36 74 C81.55 74.1 74.74 74.18 67.93 74.26 C69.43 71.12 70.87 69.14 73.46 66.79 C74.52 65.82 74.52 65.82 75.6 64.83 C76.35 64.15 77.1 63.46 77.87 62.76 C79.41 61.31 80.95 59.85 82.49 58.4 C85.09 55.94 87.73 53.57 90.47 51.28 C96.34 46.09 98.48 41.69 99.03 33.94 C99.16 29.7 99.14 25.49 98.93 21.26 C98.3 21.29 97.67 21.32 97.02 21.35 C93.99 21.49 90.96 21.63 87.93 21.76 C86.45 21.83 86.45 21.83 84.93 21.9 C63.29 22.83 41.64 22.1 20.01 21.33 C16.49 21.21 12.97 21.09 9.45 20.97 C2.61 20.74 -4.23 20.5 -11.07 20.26 C-10.94 18.33 -10.8 16.41 -10.65 14.49 C-10.58 13.41 -10.5 12.34 -10.42 11.24 C-10 7.7 -9.08 5.2 -7.07 2.26 C-4.02 0.22 -3.43 0.01 0 0 Z " fill="#EA5A47" transform="translate(1579.066650390625,397.7412109375)"/>
<path d="M0 0 C0.78 0.06 1.57 0.12 2.37 0.18 C24.87 1.89 47.06 2.47 69.61 1.23 C73.39 1.03 77.16 0.84 80.94 0.75 C82.25 0.71 82.25 0.71 83.59 0.67 C87.35 1.18 89.97 2.67 92.29 5.68 C93.35 9.15 93.34 12.53 93.31 16.12 C93.31 16.96 93.31 17.8 93.3 18.67 C93.17 27.72 92.41 36.73 91.62 45.75 C91.56 46.49 91.5 47.24 91.43 48 C89.68 68.37 89.68 68.37 86.27 71.68 C83.49 73.3 81.77 73.36 78.56 73.33 C77.5 73.32 76.44 73.32 75.35 73.31 C74.24 73.29 73.14 73.27 72 73.25 C70.93 73.24 69.85 73.24 68.75 73.23 C65.49 73.2 62.25 73.11 59 73 C57.9 72.97 56.8 72.95 55.67 72.92 C47.76 72.55 47.76 72.55 44.28 70.02 C43.69 69.15 43.11 68.28 42.5 67.38 C41.42 65.87 41.42 65.87 40.33 64.33 C39.96 63.79 39.58 63.25 39.2 62.69 C37.95 60.93 36.62 59.29 35.23 57.64 C22.9 42.93 13.02 26.65 3.98 9.77 C3.11 8.21 2.18 6.69 1.23 5.18 C0 3 0 3 0 0 Z " fill="#8967AA" transform="translate(1237,482)"/>
<path d="M0 0 C7.59 0 15.18 0 23 0 C25.21 5.37 27.41 10.74 29.62 16.11 C30.36 17.94 31.11 19.76 31.86 21.58 C32.95 24.22 34.03 26.86 35.11 29.49 C35.44 30.29 35.77 31.1 36.11 31.92 C38.44 37.6 40.73 43.3 43 49 C45.96 43.27 48.5 37.5 50.86 31.5 C51.2 30.63 51.55 29.76 51.91 28.85 C53 26.09 54.1 23.33 55.19 20.56 C56.29 17.77 57.39 14.98 58.5 12.2 C59.19 10.47 59.87 8.74 60.55 7.01 C62.89 1.11 62.89 1.11 64 0 C71.26 0 78.52 0 86 0 C86 25.08 86 50.16 86 76 C79.73 76 73.46 76 67 76 C66.67 63.46 66.34 50.92 66 38 C61.38 50.54 56.76 63.08 52 76 C46.39 76 40.78 76 35 76 C29.94 63.02 24.95 50.02 20 37 C19.67 49.87 19.34 62.74 19 76 C12.73 76 6.46 76 0 76 C0 50.92 0 25.84 0 0 Z " fill="#F4F6FB" transform="translate(1178,727)"/>
<path d="M0 0 C7.59 0 15.18 0 23 0 C25.21 5.37 27.41 10.74 29.62 16.11 C30.36 17.94 31.11 19.76 31.86 21.58 C32.95 24.22 34.03 26.86 35.11 29.49 C35.44 30.29 35.77 31.1 36.11 31.92 C38.44 37.6 40.73 43.3 43 49 C45.96 43.27 48.5 37.5 50.86 31.5 C51.2 30.63 51.55 29.76 51.91 28.85 C53 26.09 54.1 23.33 55.19 20.56 C56.29 17.77 57.39 14.98 58.5 12.2 C59.19 10.47 59.87 8.74 60.55 7.01 C62.89 1.11 62.89 1.11 64 0 C71.26 0 78.52 0 86 0 C86 25.08 86 50.16 86 76 C79.73 76 73.46 76 67 76 C66.67 63.46 66.34 50.92 66 38 C61.38 50.54 56.76 63.08 52 76 C46.39 76 40.78 76 35 76 C29.94 63.02 24.95 50.02 20 37 C19.67 49.87 19.34 62.74 19 76 C12.73 76 6.46 76 0 76 C0 50.92 0 25.84 0 0 Z " fill="#F4F6FB" transform="translate(432,727)"/>
<path d="M0 0 C1.08 0.01 2.17 0.02 3.29 0.03 C5.86 0.05 8.43 0.08 11 0.12 C7.97 3.38 4.77 5.7 1.06 8.12 C-6.31 13.1 -12.71 18.87 -19 25.12 C-19.48 25.6 -19.95 26.07 -20.44 26.56 C-32.55 38.73 -41.87 53.08 -50 68.12 C-51.08 70.1 -52.15 72.07 -53.23 74.04 C-54.15 75.73 -55.08 77.43 -56 79.12 C-60.36 79.03 -64.72 78.93 -69.08 78.81 C-70.56 78.77 -72.05 78.73 -73.53 78.7 C-75.66 78.66 -77.79 78.6 -79.93 78.54 C-81.85 78.49 -81.85 78.49 -83.81 78.44 C-87 78.12 -87 78.12 -90 76.12 C-91.09 73.18 -91.19 70.23 -91.32 67.11 C-91.36 66.12 -91.4 65.13 -91.44 64.1 C-91.65 58.44 -91.84 52.79 -92 47.12 C-92.03 46.05 -92.06 44.97 -92.09 43.86 C-92.81 14.23 -92.81 14.23 -87 3.12 C-86.44 3.12 -85.88 3.11 -85.3 3.1 C-79.33 3.01 -73.36 2.91 -67.38 2.81 C-65.17 2.77 -62.96 2.73 -60.75 2.7 C-47.85 2.52 -35.07 1.99 -22.22 0.82 C-14.79 0.15 -7.47 -0.13 0 0 Z " fill="#F4AA41" transform="translate(1427,152.875)"/>
<path d="M0 0 C15.16 -0.37 31.07 0.99 45.9 4.16 C45.04 28.97 38.68 53.05 29.9 76.16 C18.7 76.81 7.5 77.29 -3.72 77.41 C-5.21 77.44 -5.21 77.44 -6.72 77.47 C-7.64 77.48 -8.56 77.48 -9.51 77.49 C-10.33 77.5 -11.14 77.51 -11.98 77.52 C-14.62 77.07 -15.47 76.25 -17.1 74.16 C-21.71 59.32 -17.64 39.67 -16.29 24.47 C-16.2 23.5 -16.12 22.52 -16.03 21.51 C-15.79 18.7 -15.53 15.89 -15.27 13.09 C-15.19 12.23 -15.12 11.38 -15.05 10.49 C-14.97 9.7 -14.89 8.91 -14.81 8.1 C-14.74 7.41 -14.68 6.72 -14.61 6.01 C-13.95 3.63 -13.02 2.67 -11.1 1.16 C-7.37 0.36 -3.8 0.2 0 0 Z " fill="#F4AA41" transform="translate(454.09765625,227.83984375)"/>
<path d="M0 0 C20 0 20 0 24.02 3.31 C25.21 5.54 25.21 5.54 26.25 8 C27.15 9.73 28.06 11.45 28.97 13.18 C29.44 14.11 29.9 15.04 30.39 16 C33.43 21.66 37.14 26.88 40.75 32.19 C44.34 37.54 44.34 37.54 48 43 C48.33 28.81 48.66 14.62 49 0 C55.27 0 61.54 0 68 0 C68 25.08 68 50.16 68 76 C61.4 76 54.8 76 48 76 C41.68 68.37 41.68 68.37 39.88 64.51 C36.41 57.62 32.08 51.35 27.81 44.94 C25.23 41 22.66 37.06 20 33 C19.67 47.19 19.34 61.38 19 76 C12.73 76 6.46 76 0 76 C0 50.92 0 25.84 0 0 Z " fill="#F4F6FB" transform="translate(1575,727)"/>
<path d="M0 0 C20 0 20 0 24.02 3.31 C25.21 5.54 25.21 5.54 26.25 8 C27.15 9.73 28.06 11.45 28.97 13.18 C29.44 14.11 29.9 15.04 30.39 16 C33.43 21.66 37.14 26.88 40.75 32.19 C44.34 37.54 44.34 37.54 48 43 C48.33 28.81 48.66 14.62 49 0 C55.27 0 61.54 0 68 0 C68 25.08 68 50.16 68 76 C61.4 76 54.8 76 48 76 C41.68 68.37 41.68 68.37 39.88 64.51 C36.41 57.62 32.08 51.35 27.81 44.94 C25.23 41 22.66 37.06 20 33 C19.67 47.19 19.34 61.38 19 76 C12.73 76 6.46 76 0 76 C0 50.92 0 25.84 0 0 Z " fill="#F4F6FB" transform="translate(1308,727)"/>
<path d="M0 0 C20 0 20 0 24.02 3.31 C25.21 5.54 25.21 5.54 26.25 8 C27.15 9.73 28.06 11.45 28.97 13.18 C29.44 14.11 29.9 15.04 30.39 16 C33.43 21.66 37.14 26.88 40.75 32.19 C44.34 37.54 44.34 37.54 48 43 C48.33 28.81 48.66 14.62 49 0 C55.27 0 61.54 0 68 0 C68 25.08 68 50.16 68 76 C61.4 76 54.8 76 48 76 C41.68 68.37 41.68 68.37 39.88 64.51 C36.41 57.62 32.08 51.35 27.81 44.94 C25.23 41 22.66 37.06 20 33 C19.67 47.19 19.34 61.38 19 76 C12.73 76 6.46 76 0 76 C0 50.92 0 25.84 0 0 Z " fill="#F4F6FB" transform="translate(914,727)"/>
<path d="M0 0 C35 0 35 0 45 1 C46.69 2.69 46.13 4.79 46.15 7.05 C46.15 7.77 46.15 8.5 46.15 9.24 C46.15 10 46.15 10.76 46.16 11.54 C46.16 14.06 46.17 16.57 46.17 19.09 C46.17 20.83 46.17 22.57 46.18 24.32 C46.18 27.98 46.19 31.63 46.19 35.29 C46.19 39.99 46.2 44.68 46.22 49.38 C46.23 52.98 46.23 56.58 46.23 60.18 C46.23 61.91 46.23 63.64 46.24 65.37 C46.25 67.79 46.25 70.21 46.24 72.63 C46.25 73.35 46.25 74.07 46.26 74.81 C46.23 79.77 46.23 79.77 44 82 C42.09 82.32 42.09 82.32 39.73 82.41 C38.84 82.45 37.95 82.49 37.03 82.53 C36.09 82.57 35.15 82.6 34.18 82.63 C33.32 82.67 32.45 82.71 31.56 82.75 C28.34 82.88 25.11 83 21.88 83.12 C14.66 83.41 7.44 83.7 0 84 C0 56.28 0 28.56 0 0 Z " fill="#8967AA" transform="translate(658,474)"/>
<path d="M0 0 C5.09 4.66 8.89 9.4 11 16 C11 16.99 11 17.98 11 19 C7.63 19.15 4.25 19.23 0.88 19.31 C-0.08 19.35 -1.03 19.4 -2.01 19.44 C-9.96 19.58 -9.96 19.58 -13.5 16.57 C-14.33 15.72 -15.15 14.87 -16 14 C-21.05 11.53 -25.63 11.68 -31 13 C-36.73 15.92 -39.97 19.91 -42 26 C-42.64 33.7 -42.82 40.64 -38 47 C-33.57 51.43 -29.24 52.82 -23.06 53.31 C-18.25 53.16 -14.03 51.97 -10.49 48.54 C-8.73 46.48 -7.21 44.42 -6 42 C-13.26 42 -20.52 42 -28 42 C-28 37.05 -28 32.1 -28 27 C-14.47 27 -0.94 27 13 27 C13 50.54 13 50.54 3.88 60.88 C-5.31 69.24 -16.05 71.51 -28.07 71.28 C-39.24 70.49 -47.68 65.76 -55.25 57.75 C-62.91 48.36 -63.69 36.62 -63 25 C-61.36 15.1 -56.66 6.67 -48.69 0.56 C-34.82 -8.75 -13.93 -10.29 0 0 Z " fill="#F4F6FB" transform="translate(1448,733)"/>
<path d="M0 0 C5.09 4.66 8.89 9.4 11 16 C11 16.99 11 17.98 11 19 C7.63 19.15 4.25 19.23 0.88 19.31 C-0.08 19.35 -1.03 19.4 -2.01 19.44 C-9.96 19.58 -9.96 19.58 -13.5 16.57 C-14.33 15.72 -15.15 14.87 -16 14 C-21.05 11.53 -25.63 11.68 -31 13 C-36.73 15.92 -39.97 19.91 -42 26 C-42.64 33.7 -42.82 40.64 -38 47 C-33.57 51.43 -29.24 52.82 -23.06 53.31 C-18.25 53.16 -14.03 51.97 -10.49 48.54 C-8.73 46.48 -7.21 44.42 -6 42 C-13.26 42 -20.52 42 -28 42 C-28 37.05 -28 32.1 -28 27 C-14.47 27 -0.94 27 13 27 C13 50.54 13 50.54 3.88 60.88 C-5.31 69.24 -16.05 71.51 -28.07 71.28 C-39.24 70.49 -47.68 65.76 -55.25 57.75 C-62.91 48.36 -63.69 36.62 -63 25 C-61.36 15.1 -56.66 6.67 -48.69 0.56 C-34.82 -8.75 -13.93 -10.29 0 0 Z " fill="#F4F6FB" transform="translate(1078,733)"/>
<path d="M0 0 C0.67 0.55 1.34 1.09 2.03 1.65 C2.67 2.17 3.3 2.68 3.96 3.21 C10.74 9.29 14.65 18.09 15.27 27.12 C15.6 39.01 14.04 49.24 6.07 58.62 C-2.59 67.23 -11.25 70.89 -23.35 71.09 C-34.25 71.02 -43.57 67.76 -51.97 60.65 C-60.73 51.41 -63.37 40.79 -63.25 28.36 C-62.42 17.3 -57.66 8.79 -49.6 1.4 C-35.53 -9.95 -14.67 -10.85 0 0 Z M-39.35 17.03 C-43.56 23.83 -43.73 30.87 -42.97 38.65 C-41.33 44.49 -38.12 48.41 -32.97 51.65 C-26.84 53.8 -20.96 54.47 -14.97 51.65 C-10.76 48.99 -7.13 45.72 -5.41 40.9 C-3.93 33.29 -3.65 24.99 -7.77 18.2 C-10.76 14.36 -14.29 11.9 -18.97 10.65 C-27.19 9.71 -33.42 11.1 -39.35 17.03 Z " fill="#F4F6FB" transform="translate(889.97265625,733.34765625)"/>
<path d="M0 0 C0.67 0.55 1.34 1.09 2.03 1.65 C2.67 2.17 3.3 2.68 3.96 3.21 C10.74 9.29 14.65 18.09 15.27 27.12 C15.6 39.01 14.04 49.24 6.07 58.62 C-2.59 67.23 -11.25 70.89 -23.35 71.09 C-34.25 71.02 -43.57 67.76 -51.97 60.65 C-60.73 51.41 -63.37 40.79 -63.25 28.36 C-62.42 17.3 -57.66 8.79 -49.6 1.4 C-35.53 -9.95 -14.67 -10.85 0 0 Z M-39.35 17.03 C-43.56 23.83 -43.73 30.87 -42.97 38.65 C-41.33 44.49 -38.12 48.41 -32.97 51.65 C-26.84 53.8 -20.96 54.47 -14.97 51.65 C-10.76 48.99 -7.13 45.72 -5.41 40.9 C-3.93 33.29 -3.65 24.99 -7.77 18.2 C-10.76 14.36 -14.29 11.9 -18.97 10.65 C-27.19 9.71 -33.42 11.1 -39.35 17.03 Z " fill="#F4F6FB" transform="translate(326.97265625,733.34765625)"/>
<path d="M0 0 C44.56 0 44.56 0 54 8 C59.27 14.03 59.51 20.48 59.34 28.19 C58.87 33.45 57.55 37.07 54 41 C47.82 46 47.82 46 44 46 C48.03 53.58 52.31 60.99 56.75 68.34 C57.17 69.04 57.59 69.75 58.02 70.47 C58.4 71.1 58.78 71.74 59.18 72.39 C60 74 60 74 60 76 C52.74 76 45.48 76 38 76 C35.87 72.25 33.75 68.5 31.62 64.75 C31.02 63.69 30.42 62.62 29.8 61.53 C29.22 60.5 28.64 59.48 28.04 58.42 C27.5 57.48 26.97 56.54 26.42 55.57 C25 53 25 53 24.06 50.72 C22.97 48.5 22.97 48.5 19 48 C19 57.24 19 66.48 19 76 C12.73 76 6.46 76 0 76 C0 50.92 0 25.84 0 0 Z M19 17 C19 22.61 19 28.22 19 34 C21.39 34.04 23.78 34.08 26.25 34.12 C27 34.14 27.74 34.16 28.51 34.18 C32.19 34.21 34.93 34.1 38 32 C40.56 28.83 40.05 25.74 39.68 21.9 C38.68 19.1 37.65 18.36 35 17 C32.15 16.79 29.58 16.72 26.75 16.81 C22.91 16.91 22.91 16.91 19 17 Z " fill="#F4F6FB" transform="translate(197,727)"/>
<path d="M0 0 C44.56 0 44.56 0 54 8 C59.27 14.03 59.51 20.48 59.34 28.19 C58.87 33.45 57.55 37.07 54 41 C47.82 46 47.82 46 44 46 C48.03 53.58 52.31 60.99 56.75 68.34 C57.17 69.04 57.59 69.75 58.02 70.47 C58.4 71.1 58.78 71.74 59.18 72.39 C60 74 60 74 60 76 C52.74 76 45.48 76 38 76 C35.87 72.25 33.75 68.5 31.62 64.75 C31.02 63.69 30.42 62.62 29.8 61.53 C29.22 60.5 28.64 59.48 28.04 58.42 C27.5 57.48 26.97 56.54 26.42 55.57 C25 53 25 53 24.06 50.72 C22.97 48.5 22.97 48.5 19 48 C19 57.24 19 66.48 19 76 C12.73 76 6.46 76 0 76 C0 50.92 0 25.84 0 0 Z M19 17 C19 22.61 19 28.22 19 34 C21.39 34.04 23.79 34.08 26.25 34.12 C27 34.14 27.74 34.16 28.51 34.18 C32.19 34.21 34.93 34.1 38 32 C40.56 28.83 40.05 25.74 39.68 21.9 C38.68 19.1 37.65 18.36 35 17 C32.15 16.79 29.58 16.72 26.75 16.81 C22.91 16.91 22.91 16.91 19 17 Z " fill="#F4F6FB" transform="translate(6,727)"/>
<path d="M0 0 C1.17 0.01 1.17 0.01 2.37 0.01 C5.3 0.03 8.22 0.09 11.14 0.14 C17.68 0.22 24.22 0.31 30.96 0.39 C30.96 25.47 30.96 50.55 30.96 76.39 C7.33 76.39 7.33 76.39 0.02 76.2 C-1.54 76.19 -1.54 76.19 -3.13 76.19 C-10.38 75.97 -10.38 75.97 -13.19 73.51 C-14.45 68.9 -14.62 64.46 -14.73 59.7 C-14.76 58.65 -14.79 57.6 -14.83 56.52 C-14.92 53.15 -14.98 49.77 -15.04 46.39 C-15.08 44.7 -15.08 44.7 -15.13 42.98 C-15.82 12.6 -15.82 12.6 -11.05 2.23 C-7.79 -0.76 -4.26 -0.1 0 0 Z " fill="#61B2E4" transform="translate(118.04296875,562.609375)"/>
<path d="M0 0 C15.18 0.33 30.36 0.66 46 1 C46.08 18.39 46.08 18.39 46.1 25.79 C46.11 30.84 46.12 35.89 46.15 40.94 C46.17 45.01 46.18 49.09 46.19 53.16 C46.19 54.71 46.2 56.27 46.21 57.82 C46.23 60 46.23 62.17 46.23 64.35 C46.23 65.59 46.24 66.83 46.24 68.1 C46 71 46 71 44 73 C41.38 73.32 38.84 73.52 36.21 73.63 C35.43 73.67 34.66 73.72 33.86 73.76 C31.36 73.89 28.87 74.01 26.38 74.12 C24.72 74.21 23.06 74.3 21.4 74.39 C19.8 74.47 18.19 74.55 16.59 74.63 C15.85 74.67 15.11 74.71 14.34 74.75 C13.63 74.78 12.92 74.81 12.18 74.85 C11.57 74.88 10.95 74.91 10.32 74.94 C6.88 75.03 3.44 75 0 75 C0 50.25 0 25.5 0 0 Z " fill="#F4AA41" transform="translate(658,150)"/>
<path d="M0 0 C1.17 0.01 1.17 0.01 2.37 0.01 C5.3 0.03 8.22 0.09 11.14 0.14 C17.68 0.22 24.22 0.31 30.96 0.39 C30.96 24.81 30.96 49.23 30.96 74.39 C21.68 75.16 12.68 75.63 3.39 75.7 C2.72 75.72 2.04 75.73 1.34 75.75 C-0.64 75.79 -2.63 75.8 -4.61 75.82 C-5.77 75.83 -6.94 75.85 -8.14 75.86 C-11.04 75.39 -11.04 75.39 -12.91 73.67 C-14.19 71.09 -14.47 69.35 -14.55 66.48 C-14.59 65.5 -14.63 64.53 -14.66 63.52 C-14.69 62.47 -14.71 61.41 -14.73 60.33 C-14.78 58.68 -14.78 58.68 -14.83 57 C-14.92 53.47 -14.98 49.93 -15.04 46.39 C-15.07 45.21 -15.1 44.03 -15.13 42.82 C-15.79 12.47 -15.79 12.47 -11.05 2.24 C-7.8 -0.76 -4.26 -0.1 0 0 Z " fill="#F4AA41" transform="translate(118.04296875,229.609375)"/>
<path d="M0 0 C9.99 0.22 9.99 0.22 20.19 0.44 C22.28 0.48 24.38 0.52 26.54 0.57 C28.2 0.61 29.87 0.64 31.54 0.68 C32.4 0.7 33.26 0.72 34.15 0.73 C34.98 0.75 35.81 0.77 36.67 0.79 C37.74 0.82 37.74 0.82 38.84 0.84 C41.29 1.02 43.61 1.48 46 2 C46.12 10.81 46.2 19.63 46.26 28.44 C46.29 32.54 46.32 36.63 46.38 40.72 C46.43 44.67 46.46 48.62 46.47 52.57 C46.48 54.07 46.5 55.58 46.53 57.09 C46.56 59.2 46.57 61.31 46.57 63.42 C46.58 65.22 46.58 65.22 46.6 67.06 C46 70 46 70 43.74 71.88 C41.15 72.94 39.43 73.39 36.67 73.43 C35.42 73.46 35.42 73.46 34.15 73.49 C33.29 73.5 32.43 73.51 31.54 73.51 C30.74 73.53 29.94 73.54 29.12 73.56 C26.14 73.62 23.16 73.65 20.19 73.69 C10.19 73.84 10.19 73.84 0 74 C0 49.58 0 25.16 0 0 Z " fill="#EA5A47" transform="translate(658,312)"/>
<path d="M0 0 C19.14 0 38.28 0 58 0 C58 18.48 58 36.96 58 56 C33.23 56 33.23 56 21 55.19 C19.71 55.12 18.41 55.05 17.08 54.97 C15.21 54.85 15.21 54.85 13.31 54.73 C12.22 54.66 11.12 54.59 9.99 54.52 C5.8 53.79 3.24 52.2 0.21 49.27 C-1.48 46.09 -1.39 43.14 -1.33 39.63 C-1.33 38.91 -1.32 38.19 -1.32 37.45 C-1.32 35.93 -1.3 34.41 -1.28 32.89 C-1.25 30.6 -1.24 28.32 -1.23 26.03 C-1.23 24.54 -1.21 23.06 -1.2 21.57 C-1.2 20.9 -1.19 20.24 -1.19 19.55 C-1.1 12.98 -0.51 6.6 0 0 Z " fill="#FCEA2B" transform="translate(1045,6)"/>
<path d="M0 0 C31.55 3.41 64.07 25 86.83 46.02 C88.71 47.74 90.63 49.35 92.62 50.94 C93.8 51.96 93.8 51.96 95 53 C95 53.66 95 54.32 95 55 C90.93 55.29 86.86 55.57 82.79 55.85 C81.41 55.95 80.03 56.05 78.65 56.15 C65.92 57.05 53.81 57.19 41.12 55.69 C39.96 55.55 38.79 55.42 37.59 55.28 C34.06 54.86 30.53 54.43 27 54 C25.94 53.87 24.88 53.74 23.79 53.61 C20.9 53.26 18.01 52.88 15.12 52.5 C14.27 52.39 13.42 52.29 12.54 52.18 C8.11 51.56 4.53 50.95 1 48 C-0.95 44.14 -1.25 40.96 -1.23 36.66 C-1.23 35.43 -1.23 34.2 -1.22 32.94 C-1.21 31.66 -1.2 30.38 -1.19 29.06 C-1.19 27.82 -1.19 26.58 -1.19 25.29 C-1.15 16.82 -0.71 8.44 0 0 Z " fill="#FCEA2B" transform="translate(336,5)"/>
<path d="M0 0 C6.27 0 12.54 0 19 0 C19.01 1.45 19.03 2.9 19.04 4.39 C19.1 9.78 19.18 15.16 19.26 20.55 C19.3 22.88 19.32 25.21 19.35 27.54 C19.38 30.89 19.43 34.24 19.49 37.6 C19.49 38.63 19.5 39.67 19.51 40.74 C19.63 46.57 20.17 50.86 23 56 C27.02 59.02 32.2 58.65 37 58 C39.93 56.2 41.47 55.06 43 52 C43.12 50.34 43.18 48.67 43.21 47 C43.23 45.96 43.25 44.92 43.27 43.85 C43.29 42.15 43.29 42.15 43.32 40.43 C43.34 39.28 43.36 38.13 43.38 36.94 C43.44 33.25 43.5 29.56 43.56 25.88 C43.61 23.38 43.65 20.88 43.69 18.39 C43.8 12.26 43.9 6.13 44 0 C50.6 0 57.2 0 64 0 C64.07 7.08 64.13 14.16 64.16 21.24 C64.18 23.65 64.2 26.05 64.23 28.46 C64.26 31.93 64.28 35.4 64.29 38.87 C64.31 39.93 64.32 41 64.34 42.09 C64.34 52.11 62.6 61.04 55.54 68.55 C47.85 75.81 39.54 77.61 29.26 77.47 C20.14 77.09 13.37 74.21 6.69 67.93 C1.75 62.29 -0.13 55.98 -0.11 48.59 C-0.11 47.51 -0.11 46.43 -0.11 45.31 C-0.11 44.15 -0.1 42.99 -0.1 41.8 C-0.1 40.6 -0.09 39.41 -0.09 38.18 C-0.09 34.37 -0.08 30.56 -0.06 26.75 C-0.06 24.17 -0.05 21.58 -0.05 19 C-0.04 12.67 -0.02 6.33 0 0 Z " fill="#F4F6FB" transform="translate(1656,727)"/>
<path d="M0 0 C6.27 0 12.54 0 19 0 C19.01 1.45 19.03 2.9 19.04 4.39 C19.1 9.78 19.18 15.16 19.26 20.55 C19.3 22.88 19.32 25.21 19.35 27.54 C19.38 30.89 19.43 34.24 19.49 37.6 C19.49 38.63 19.5 39.67 19.51 40.74 C19.63 46.57 20.17 50.86 23 56 C27.02 59.02 32.2 58.65 37 58 C39.93 56.2 41.47 55.06 43 52 C43.12 50.34 43.18 48.67 43.21 47 C43.23 45.96 43.25 44.92 43.27 43.85 C43.29 42.15 43.29 42.15 43.32 40.43 C43.34 39.28 43.36 38.13 43.38 36.94 C43.44 33.25 43.5 29.56 43.56 25.88 C43.61 23.38 43.65 20.88 43.69 18.39 C43.8 12.26 43.9 6.13 44 0 C50.6 0 57.2 0 64 0 C64.07 7.08 64.13 14.16 64.16 21.24 C64.18 23.65 64.2 26.05 64.23 28.46 C64.26 31.93 64.28 35.4 64.29 38.87 C64.31 39.93 64.32 41 64.34 42.09 C64.34 52.11 62.6 61.04 55.54 68.55 C47.85 75.81 39.54 77.61 29.26 77.47 C20.14 77.09 13.37 74.21 6.69 67.93 C1.75 62.29 -0.13 55.98 -0.11 48.59 C-0.11 47.51 -0.11 46.43 -0.11 45.31 C-0.11 44.15 -0.1 42.99 -0.1 41.8 C-0.1 40.6 -0.09 39.41 -0.09 38.18 C-0.09 34.37 -0.08 30.56 -0.06 26.75 C-0.06 24.17 -0.05 21.58 -0.05 19 C-0.04 12.67 -0.02 6.33 0 0 Z " fill="#F4F6FB" transform="translate(530,727)"/>
<path d="M0 0 C7.59 0 15.18 0 23 0 C26.6 10.01 30.21 20.02 33.81 30.03 C34.4 31.66 34.4 31.66 35 33.32 C35.79 35.52 36.58 37.73 37.37 39.93 C39.45 45.69 41.52 51.45 43.61 57.2 C44.02 58.36 44.44 59.52 44.87 60.71 C45.68 62.93 46.48 65.15 47.29 67.37 C47.64 68.36 48 69.35 48.37 70.37 C48.68 71.24 49 72.11 49.33 73.01 C50 75 50 75 50 76 C43.07 76 36.14 76 29 76 C25 65.25 25 65.25 25 63 C11.63 63.5 11.63 63.5 -2 64 C-3.32 67.96 -4.64 71.92 -6 76 C-12.93 76 -19.86 76 -27 76 C-21.52 59.27 -15.61 42.72 -9.56 26.19 C-8.63 23.63 -7.7 21.08 -6.77 18.53 C-4.51 12.35 -2.26 6.17 0 0 Z M11 23 C8.36 31.25 5.72 39.5 3 48 C8.61 48 14.22 48 20 48 C17.36 39.75 14.72 31.5 12 23 C11.67 23 11.34 23 11 23 Z " fill="#F4F6FB" transform="translate(1121,727)"/>
<path d="M0 0 C7.59 0 15.18 0 23 0 C26.6 10.01 30.21 20.02 33.81 30.03 C34.4 31.66 34.4 31.66 35 33.32 C35.79 35.52 36.58 37.73 37.37 39.93 C39.45 45.69 41.52 51.45 43.61 57.2 C44.02 58.36 44.44 59.52 44.87 60.71 C45.68 62.93 46.48 65.15 47.29 67.37 C47.64 68.36 48 69.35 48.37 70.37 C48.68 71.24 49 72.11 49.33 73.01 C50 75 50 75 50 76 C43.07 76 36.14 76 29 76 C25 65.25 25 65.25 25 63 C11.63 63.5 11.63 63.5 -2 64 C-3.32 67.96 -4.64 71.92 -6 76 C-12.93 76 -19.86 76 -27 76 C-21.52 59.27 -15.61 42.72 -9.56 26.19 C-8.63 23.63 -7.7 21.08 -6.77 18.53 C-4.51 12.35 -2.26 6.17 0 0 Z M11 23 C8.36 31.25 5.72 39.5 3 48 C8.61 48 14.22 48 20 48 C17.36 39.75 14.72 31.5 12 23 C11.67 23 11.34 23 11 23 Z " fill="#F4F6FB" transform="translate(678,727)"/>
<path d="M0 0 C13.86 -0.19 27.66 0.4 41.5 1 C43.79 1.1 46.08 1.19 48.36 1.29 C53.91 1.52 59.45 1.76 65 2 C65 17.51 65 33.02 65 49 C56.99 49.06 48.99 49.12 40.98 49.16 C37.25 49.17 33.52 49.19 29.79 49.23 C26.2 49.26 22.61 49.28 19.01 49.28 C17.64 49.29 16.27 49.3 14.91 49.32 C12.99 49.34 11.07 49.34 9.15 49.34 C8.05 49.35 6.96 49.35 5.83 49.36 C2.65 48.95 1.29 48.22 -1 46 C-2.69 41.3 -2.19 35.82 -2.19 30.88 C-2.19 29.91 -2.19 28.95 -2.19 27.96 C-2.12 18.56 -1.21 9.32 0 0 Z " fill="#F4AA41" transform="translate(996,257)"/>
<path d="M0 0 C9.15 0.24 18.29 0.48 27.44 0.73 C31.69 0.85 35.93 0.96 40.18 1.07 C44.29 1.18 48.4 1.29 52.51 1.4 C54.07 1.44 55.63 1.48 57.19 1.52 C85.25 2.25 85.25 2.25 87 4 C87.09 5.87 87.12 7.75 87.11 9.62 C87.11 11.42 87.11 11.42 87.11 13.26 C87.11 14.57 87.1 15.88 87.1 17.22 C87.1 18.57 87.09 19.91 87.09 21.25 C87.09 24.8 87.08 28.34 87.07 31.88 C87.06 35.5 87.05 39.11 87.05 42.72 C87.04 49.81 87.02 56.91 87 64 C81.52 62.21 76.78 59.91 71.75 57.12 C70.88 56.64 70 56.16 69.1 55.66 C46.38 42.91 25.88 26.89 7 9 C6.21 8.26 5.43 7.51 4.62 6.75 C3.04 5.21 1.51 3.61 0 2 C0 1.34 0 0.68 0 0 Z " fill="#61B2E4" transform="translate(1291,559)"/>
<path d="M0 0 C19.44 -1.79 19.44 -1.79 25 2.1 C27 4.97 28.5 7.83 30 11 C31.3 12.92 32.63 14.82 34 16.69 C35 18.12 36 19.56 37 21 C37.36 20.4 37.72 19.8 38.09 19.18 C39.7 16.47 41.32 13.77 42.94 11.06 C43.78 9.64 43.78 9.64 44.65 8.2 C45.18 7.3 45.72 6.4 46.28 5.47 C47.02 4.22 47.02 4.22 47.78 2.95 C49 1 49 1 50 0 C51.63 -0.09 53.27 -0.11 54.91 -0.1 C56.39 -0.09 56.39 -0.09 57.91 -0.09 C58.95 -0.08 59.99 -0.07 61.06 -0.06 C62.63 -0.06 62.63 -0.06 64.23 -0.05 C66.82 -0.04 69.41 -0.02 72 0 C68.84 6.68 65.07 12.8 61.06 19 C59.26 21.81 57.46 24.61 55.67 27.43 C54.6 29.07 53.51 30.69 52.37 32.29 C51.9 32.98 51.42 33.67 50.93 34.38 C50.51 34.96 50.09 35.55 49.65 36.15 C48.79 38.05 48.79 38.05 49.58 40.28 C51.4 43.78 53.54 46.96 55.79 50.2 C56.48 51.21 56.48 51.21 57.19 52.25 C58.67 54.4 60.14 56.54 61.62 58.69 C63.58 61.52 65.53 64.36 67.48 67.2 C67.93 67.85 68.38 68.5 68.85 69.18 C72 73.77 72 73.77 72 76 C52.55 77.79 52.55 77.79 46.97 73.87 C44.96 71 43.47 68.18 42 65 C40.86 63.25 39.7 61.52 38.5 59.81 C37.66 58.54 36.83 57.27 36 56 C33.53 58.78 31.76 61.33 30.41 64.77 C28.58 69.09 26.84 73.13 23 76 C15.89 77.91 8.22 76.92 1 76 C2.39 72.21 4.15 68.95 6.3 65.54 C6.95 64.51 7.6 63.48 8.26 62.42 C8.94 61.35 9.62 60.29 10.31 59.19 C10.98 58.13 11.64 57.08 12.33 55.99 C12.98 54.96 13.63 53.92 14.3 52.86 C14.93 51.85 15.56 50.85 16.21 49.81 C17.33 48.06 18.46 46.32 19.63 44.6 C22.23 41.11 22.23 41.11 22.76 37 C21.98 34.96 21.09 33.35 19.87 31.55 C19.43 30.89 18.99 30.24 18.53 29.57 C17.82 28.52 17.82 28.52 17.09 27.46 C16.6 26.74 16.12 26.02 15.61 25.27 C14.06 22.97 12.5 20.67 10.94 18.38 C9.37 16.07 7.81 13.77 6.25 11.46 C5.28 10.02 4.31 8.59 3.33 7.16 C0 2.23 0 2.23 0 0 Z " fill="#F4F6FB" transform="translate(1727,727)"/>
<path d="M0 0 C32.41 -0.19 32.41 -0.19 47.94 0.25 C48.92 0.26 49.91 0.28 50.93 0.29 C52.28 0.34 52.28 0.34 53.65 0.39 C54.81 0.42 54.81 0.42 56 0.45 C58.81 1.22 59.48 2.56 61 5 C61.4 7.15 61.4 7.15 61.43 9.5 C61.46 10.83 61.46 10.83 61.49 12.18 C61.5 13.14 61.51 14.1 61.51 15.08 C61.53 16.09 61.55 17.09 61.57 18.13 C61.62 21.36 61.65 24.58 61.69 27.81 C61.72 29.91 61.76 32.01 61.79 34.11 C61.88 39.35 61.92 44.58 61.96 49.82 C62 53.08 62.08 56.34 62.16 59.6 C62.2 61.69 62.23 63.79 62.27 65.89 C62.3 66.86 62.33 67.84 62.37 68.84 C62.38 69.74 62.39 70.64 62.4 71.56 C62.42 72.35 62.44 73.14 62.46 73.95 C62 76 62 76 60.15 77.74 C57.39 79.36 55.32 79.6 52.12 79.75 C50.61 79.87 50.61 79.87 49.07 79.98 C44.05 78.38 42.54 74.42 40 70 C38.98 68.31 37.95 66.61 36.93 64.92 C34.98 61.67 33.05 58.39 31.12 55.12 C30.29 53.71 29.45 52.3 28.62 50.89 C26.49 47.29 24.36 43.7 22.24 40.1 C19.21 34.97 16.18 29.85 13.15 24.73 C12.15 23.05 11.16 21.36 10.16 19.68 C9.56 18.65 8.95 17.62 8.32 16.56 C7.75 15.61 7.19 14.65 6.61 13.66 C4.76 10.6 2.83 7.6 0.84 4.62 C0 3 0 3 0 0 Z " fill="#8967AA" transform="translate(270,476)"/>
<path d="M0 0 C1.84 -0 1.84 -0 3.71 -0.01 C5.01 0.01 6.32 0.04 7.66 0.06 C8.67 0.07 8.67 0.07 9.69 0.08 C19.09 0.15 28.26 0.84 37.55 2.35 C48.86 4.13 60.29 4.25 71.72 4.5 C71.72 5.16 71.72 5.82 71.72 6.5 C70.31 7.75 70.31 7.75 68.3 9.19 C67.56 9.73 66.81 10.28 66.03 10.84 C65.21 11.43 64.38 12.01 63.54 12.62 C61.79 13.89 60.04 15.15 58.3 16.42 C57.39 17.09 56.47 17.75 55.53 18.44 C50.9 21.83 46.34 25.32 41.79 28.81 C40.01 30.17 38.23 31.53 36.45 32.89 C35.62 33.52 34.8 34.15 33.95 34.8 C31.22 36.88 28.48 38.94 25.72 41 C20.19 45.13 14.71 49.31 9.22 53.5 C7.4 54.88 5.58 56.27 3.77 57.65 C0.76 59.94 -2.23 62.23 -5.23 64.53 C-6.31 65.35 -7.39 66.17 -8.46 67 C-9.37 67.69 -10.27 68.38 -11.2 69.09 C-13.28 70.5 -13.28 70.5 -15.28 70.5 C-15.54 56.38 -14.91 42.54 -13.55 28.49 C-13.28 25.48 -13.07 22.47 -12.88 19.45 C-12.81 18.49 -12.74 17.53 -12.67 16.54 C-12.54 14.73 -12.42 12.91 -12.33 11.09 C-12.26 10.28 -12.2 9.47 -12.13 8.64 C-12.09 7.93 -12.04 7.22 -12 6.5 C-10 0.96 -5.32 -0.01 0 0 Z " fill="#F4AA41" transform="translate(1683.27734375,153.50390625)"/>
<path d="M0 0 C3.25 0.59 4.96 1.56 7.36 3.81 C7.97 4.39 8.59 4.96 9.23 5.56 C10.2 6.49 10.2 6.49 11.19 7.44 C11.86 8.08 12.53 8.72 13.23 9.38 C27.93 23.48 40.17 39.78 51 57 C51.41 57.64 51.81 58.28 52.23 58.95 C53.43 60.85 54.59 62.76 55.75 64.69 C56.76 66.36 56.76 66.36 57.8 68.07 C59 71 59 71 58.44 73.19 C55.51 76.88 52.29 79.08 48 81 C44.94 81.3 44.94 81.3 41.58 81.22 C40.35 81.2 39.12 81.17 37.85 81.15 C31.7 80.91 25.57 80.61 19.44 80.19 C17.59 80.08 17.59 80.08 15.71 79.97 C14.52 79.89 13.34 79.81 12.12 79.73 C11.06 79.66 10.01 79.59 8.92 79.52 C4.73 78.77 2.12 77.2 -0.77 74.11 C-4.22 68.2 -3.08 59.92 -2.62 53.31 C-2.19 45.89 -1.91 38.47 -1.74 31.03 C-1.71 29.72 -1.71 29.72 -1.68 28.37 C-1.6 24.79 -1.52 21.21 -1.45 17.62 C-1.4 15.08 -1.34 12.53 -1.28 9.99 C-1.27 9.21 -1.25 8.44 -1.24 7.64 C-1.11 2.23 -1.11 2.23 0 0 Z " fill="#FCEA2B" transform="translate(1720,68)"/>
<path d="M0 0 C1.04 -0 2.08 -0 3.15 -0 C4.77 0 4.77 0 6.41 0.01 C7.97 0 7.97 0 9.56 -0 C17.9 0.01 26.16 0.5 34.47 1.13 C34.52 8.53 34.55 15.93 34.58 23.32 C34.59 26.76 34.6 30.19 34.62 33.63 C34.65 37.58 34.66 41.52 34.67 45.47 C34.68 46.71 34.69 47.94 34.7 49.22 C34.7 50.93 34.7 50.93 34.7 52.67 C34.7 53.68 34.71 54.69 34.71 55.73 C34.47 58.13 34.47 58.13 32.47 60.13 C30.56 60.45 30.56 60.45 28.21 60.54 C27.31 60.58 26.42 60.62 25.5 60.67 C24.09 60.72 24.09 60.72 22.65 60.77 C21.79 60.8 20.93 60.84 20.04 60.88 C16.81 61.02 13.58 61.14 10.35 61.26 C3.13 61.55 -4.09 61.84 -11.53 62.13 C-11.53 42 -11.53 21.87 -11.53 1.13 C-7.4 0.44 -4.08 0.01 0 0 Z " fill="#FCEA2B" transform="translate(669.52734375,0.8671875)"/>
<path d="M0 0 C15.51 0 31.02 0 47 0 C47 5.28 47 10.56 47 16 C37.76 16 28.52 16 19 16 C19 20.62 19 25.24 19 30 C27.25 30 35.5 30 44 30 C44 34.95 44 39.9 44 45 C35.75 45 27.5 45 19 45 C19 50.28 19 55.56 19 61 C28.24 61 37.48 61 47 61 C47 65.95 47 70.9 47 76 C31.49 76 15.98 76 0 76 C0 50.92 0 25.84 0 0 Z " fill="#F4F6FB" transform="translate(374,727)"/>
<path d="M0 0 C15.51 0 31.02 0 47 0 C47 5.28 47 10.56 47 16 C37.76 16 28.52 16 19 16 C19 20.62 19 25.24 19 30 C27.25 30 35.5 30 44 30 C44 34.95 44 39.9 44 45 C35.75 45 27.5 45 19 45 C19 50.28 19 55.56 19 61 C28.24 61 37.48 61 47 61 C47 65.95 47 70.9 47 76 C31.49 76 15.98 76 0 76 C0 50.92 0 25.84 0 0 Z " fill="#F4F6FB" transform="translate(76,727)"/>
<path d="M0 0 C15.3 -0.07 30.58 0.13 45.88 0.5 C47.94 0.55 50.01 0.6 52.08 0.64 C57.05 0.76 62.03 0.88 67 1 C67 14.2 67 27.4 67 41 C51.09 41.14 35.26 41.25 19.38 40.31 C18.22 40.26 17.06 40.21 15.86 40.15 C9.24 39.7 5.51 39.01 1 34 C-0.48 31.04 -0.12 28.05 -0.1 24.8 C-0.1 24.1 -0.09 23.39 -0.09 22.66 C-0.09 20.4 -0.08 18.14 -0.06 15.88 C-0.06 14.34 -0.05 12.81 -0.05 11.28 C-0.04 7.52 -0.02 3.76 0 0 Z " fill="#8967AA" transform="translate(1044,516)"/>
<path d="M0 0 C16.11 9.45 26.52 30.83 35 47 C35.55 48.04 35.55 48.04 36.11 49.1 C37.21 51.21 38.3 53.32 39.38 55.44 C39.7 56.06 40.02 56.69 40.35 57.33 C42.72 62.08 44.43 66.94 46 72 C36.33 72.37 26.67 72.7 17 73 C15.57 73.05 15.57 73.05 14.12 73.1 C11.89 73.16 9.67 73.21 7.44 73.25 C6.26 73.28 5.08 73.3 3.87 73.33 C0.62 72.96 -0.71 72.3 -3 70 C-9.7 49.9 -2.2 20.68 0 0 Z " fill="#FCEA2B" transform="translate(440,70)"/>
<path d="M0 0 C19.47 0 38.94 0 59 0 C59 5.28 59 10.56 59 16 C52.4 16 45.8 16 39 16 C39 35.8 39 55.6 39 76 C32.73 76 26.46 76 20 76 C20 56.2 20 36.4 20 16 C13.4 16 6.8 16 0 16 C0 10.72 0 5.44 0 0 Z " fill="#F4F6FB" transform="translate(731,727)"/>
<path d="M0 0 C19.47 0 38.94 0 59 0 C59 5.28 59 10.56 59 16 C52.4 16 45.8 16 39 16 C39 35.8 39 55.6 39 76 C32.73 76 26.46 76 20 76 C20 56.2 20 36.4 20 16 C13.4 16 6.8 16 0 16 C0 10.72 0 5.44 0 0 Z " fill="#F4F6FB" transform="translate(130,727)"/>
<path d="M0 0 C6.27 0 12.54 0 19 0 C19 20.13 19 40.26 19 61 C26.92 61 34.84 61 43 61 C43 65.95 43 70.9 43 76 C28.81 76 14.62 76 0 76 C0 50.92 0 25.84 0 0 Z " fill="#F4F6FB" transform="translate(1493,727)"/>
<path d="M0 0 C6.27 0 12.54 0 19 0 C19 20.13 19 40.26 19 61 C26.92 61 34.84 61 43 61 C43 65.95 43 70.9 43 76 C28.81 76 14.62 76 0 76 C0 50.92 0 25.84 0 0 Z " fill="#F4F6FB" transform="translate(605,727)"/>
<path d="M0 0 C0.73 -0.01 1.45 -0.02 2.2 -0.04 C6.13 -0.05 8.78 0.28 12.19 2.19 C12.26 10.33 12.31 18.48 12.34 26.62 C12.36 30.41 12.38 34.19 12.41 37.97 C12.45 41.62 12.46 45.27 12.47 48.92 C12.48 50.31 12.49 51.71 12.5 53.1 C12.53 55.05 12.53 57 12.53 58.95 C12.53 60.06 12.54 61.17 12.55 62.31 C12.14 65.56 11.55 66.94 9.19 69.19 C6.16 69.51 3.52 69.61 0.5 69.5 C-0.28 69.49 -1.06 69.48 -1.86 69.47 C-6.9 69.37 -11.82 68.89 -16.81 68.19 C-17.8 45.96 -14.22 22.7 -8.81 1.19 C-6.79 -0.84 -2.78 0 0 0 Z " fill="#F4AA41" transform="translate(1217.8125,241.8125)"/>
<path d="M0 0 C6.27 0 12.54 0 19 0 C19 25.08 19 50.16 19 76 C12.73 76 6.46 76 0 76 C0 50.92 0 25.84 0 0 Z " fill="#F4F6FB" transform="translate(1544,727)"/>
<path d="M0 0 C6.27 0 12.54 0 19 0 C19 25.08 19 50.16 19 76 C12.73 76 6.46 76 0 76 C0 50.92 0 25.84 0 0 Z " fill="#F4F6FB" transform="translate(1276,727)"/>
<path d="M0 0 C6.27 0 12.54 0 19 0 C19 25.08 19 50.16 19 76 C12.73 76 6.46 76 0 76 C0 50.92 0 25.84 0 0 Z " fill="#F4F6FB" transform="translate(799,727)"/>
<path d="M0 0 C1.48 0.07 1.48 0.07 2.99 0.14 C3.98 0.18 4.98 0.21 6 0.25 C7.14 0.32 7.14 0.32 8.3 0.39 C8.32 1.11 8.33 1.84 8.34 2.58 C8.87 26.21 10.81 48.74 16.89 71.62 C17.3 73.39 17.3 73.39 17.3 75.39 C13.7 75.54 10.09 75.62 6.49 75.7 C5.46 75.75 4.44 75.79 3.38 75.83 C0.61 75.88 -1.96 75.86 -4.7 75.39 C-7.19 72.88 -7.59 71.45 -7.96 67.99 C-7.91 67.15 -7.87 66.32 -7.82 65.45 C-7.7 61.33 -7.83 57.37 -8.2 53.27 C-11.13 14.18 -11.13 14.18 -4.5 2.22 C-2.7 0.39 -2.7 0.39 0 0 Z " fill="#EA5A47" transform="translate(1343.69921875,317.609375)"/>
<path d="M0 0 C13.1 -0.11 26.21 -0.08 39.31 0.25 C40.42 0.26 41.53 0.28 42.67 0.29 C44.22 0.34 44.22 0.34 45.8 0.39 C46.71 0.41 47.62 0.43 48.56 0.45 C51.81 1.18 52.9 2.44 55 5 C55.52 7.46 55.52 7.46 55.55 10.23 C55.57 11.27 55.59 12.31 55.61 13.38 C55.61 14.5 55.61 15.61 55.61 16.77 C55.63 17.91 55.64 19.06 55.66 20.25 C55.71 23.91 55.73 27.58 55.75 31.25 C55.78 33.74 55.81 36.22 55.84 38.71 C55.91 44.81 55.97 50.9 56 57 C55.34 57 54.68 57 54 57 C52.66 55.09 52.66 55.09 51.06 52.38 C38.75 32.49 22.2 15.52 2.6 2.76 C1.74 2.18 0.88 1.6 0 1 C0 0.67 0 0.34 0 0 Z " fill="#F4AA41" transform="translate(1608,158)"/>
<path d="M0 0 C0 20.13 0 40.26 0 61 C-12 61 -12 61 -17 60 C-17.1 49.03 -17.03 38.17 -16.22 27.22 C-15.7 18.83 -15.92 10.4 -16 2 C-10.13 -0.47 -7.11 0 0 0 Z " fill="#EA5A47" transform="translate(1061,314)"/>
<path d="M0 0 C2.38 -0.05 4.75 -0.09 7.12 -0.12 C7.79 -0.14 8.46 -0.16 9.14 -0.18 C13.8 -0.22 16.38 0.46 21 2 C21 21.8 21 41.6 21 62 C18.16 59.16 17.35 57.9 15.98 54.3 C15.62 53.35 15.26 52.4 14.89 51.42 C14.51 50.39 14.14 49.37 13.75 48.31 C13.16 46.72 13.16 46.72 12.56 45.1 C9.81 37.54 7.33 29.91 5.06 22.19 C4.78 21.23 4.5 20.27 4.21 19.28 C2.4 12.91 1.07 6.53 0 0 Z " fill="#EA5A47" transform="translate(1209,404)"/>
<path d="M0 0 C0.99 0.33 1.98 0.66 3 1 C3.84 2.98 3.84 2.98 4.5 5.61 C4.75 6.58 4.99 7.55 5.25 8.55 C5.49 9.61 5.74 10.66 6 11.75 C6.26 12.84 6.52 13.92 6.79 15.04 C11.01 33.15 12.5 50.41 12 69 C2.6 68.02 2.6 68.02 -1 64 C-3.64 57.45 -3.09 51.06 -2.79 44.1 C-2.75 42.87 -2.7 41.64 -2.66 40.37 C-2.56 37.78 -2.46 35.19 -2.35 32.6 C-2.19 28.62 -2.04 24.64 -1.9 20.65 C-1.8 18.14 -1.7 15.62 -1.61 13.1 C-1.56 11.9 -1.52 10.71 -1.47 9.47 C-1.42 8.37 -1.38 7.27 -1.33 6.14 C-1.29 5.17 -1.25 4.2 -1.21 3.2 C-1 1 -1 1 0 0 Z " fill="#F4AA41" transform="translate(488,153)"/>
<path d="M0 0 C4.58 0.59 8.18 2.49 12.12 4.75 C12.81 5.14 13.49 5.52 14.19 5.92 C20.1 9.35 25.79 13.09 31.44 16.94 C32.27 17.51 33.11 18.07 33.97 18.66 C39.87 22.74 39.87 22.74 41 25 C31.53 25.58 22.05 26.11 12.56 26.25 C11.51 26.28 11.51 26.28 10.43 26.31 C7.45 26.33 5.28 26.14 2.59 24.8 C-1.19 20.52 -0.12 14.08 -0.06 8.69 C-0.06 7.85 -0.05 7.02 -0.05 6.15 C-0.04 4.1 -0.02 2.05 0 0 Z " fill="#FCEA2B" transform="translate(1668,33)"/>
<path d="M0 0 C2.95 0.26 5.24 0.46 7.68 2.19 C9.54 4.74 9.3 6.58 9.19 9.69 C9.16 10.68 9.13 11.68 9.11 12.7 C9.07 13.46 9.04 14.22 9 15 C5.7 15 2.4 15 -1 15 C-1.03 12.69 -1.05 10.38 -1.06 8.06 C-1.07 6.77 -1.09 5.49 -1.1 4.16 C-1 1 -1 1 0 0 Z " fill="#EA5A47" transform="translate(1554,403)"/>
<path d="M0 0 C0.66 0 1.32 0 2 0 C3.94 2.23 5.76 4.47 7.56 6.81 C8.32 7.78 8.32 7.78 9.1 8.76 C11.27 11.55 12.87 13.61 14 17 C12.42 17.08 10.83 17.14 9.25 17.19 C7.93 17.24 7.93 17.24 6.58 17.29 C3.49 16.94 2.2 16.16 0 14 C-1.23 9.09 -0.91 4.94 0 0 Z " fill="#1836F8" transform="translate(1389,453)"/>
</svg>
